<?xml version="1.0" standalone="no"?><!DOCTYPE svg PUBLIC "-//W3C//DTD SVG 1.1//EN" "http://www.w3.org/Graphics/SVG/1.1/DTD/svg11.dtd"><svg t="1736869190469" class="icon" viewBox="0 0 1024 1024" version="1.1" xmlns="http://www.w3.org/2000/svg" p-id="5296" xmlns:xlink="http://www.w3.org/1999/xlink" width="200" height="200"><path d="M464.794 230.81c-0.205 0.204-5.018 0.716-10.65 1.024-13.926 0.921-36.66 4.812-48.64 8.294-40.448 11.878-69.222 26.01-101.376 49.869-2.458 1.843-8.704 7.475-13.824 12.595-5.12 5.018-7.68 7.782-5.734 6.144 1.945-1.74 4.198-3.789 4.812-4.608 0.717-0.82 1.639-1.536 2.15-1.536s1.946-1.024 3.38-2.355c1.331-1.229 2.97-2.253 3.482-2.253 0.614 0-2.356 3.174-6.554 6.86-21.094 18.74-32.563 31.54-53.043 59.188-6.451 8.806-23.86 39.424-22.323 39.424 0.204 0 2.56-3.789 5.222-8.5 7.475-12.8 19.354-31.129 20.992-32.46 0.41-0.307 2.15-2.662 3.891-5.325a480.052 480.052 0 0 1 4.506-6.144c0.717-0.717 3.174-3.686 5.427-6.451 6.042-7.68 31.846-33.587 39.424-39.731 3.686-2.867 7.475-6.042 8.397-6.861 2.15-1.946 15.053-11.264 22.22-15.974 6.042-4.096 34.1-18.842 35.533-18.842 0.512 0.102-0.41 0.82-1.945 1.638-1.639 0.922-2.765 1.844-2.458 2.15 0.307 0.206 2.253-0.511 4.506-1.638 2.15-1.126 3.174-2.048 2.355-2.15-2.15-0.102 1.843-3.072 3.994-3.072 1.33 0.102 1.228 0.41-0.41 1.638-1.946 1.639-1.946 1.639 0.512 0.922 1.434-0.41 3.891-1.434 5.53-2.253 2.15-1.126 3.174-1.229 4.096-0.307 0.819 0.82 0.716 1.024-0.615 0.512-1.126-0.41-1.843-0.205-1.843 0.512 0 0.614-0.41 0.82-1.024 0.512-0.512-0.307-1.024-0.205-1.024 0.307s-1.536 1.536-3.277 2.253c-2.97 1.024-13.312 5.53-21.299 9.011-3.789 1.741-13.62 7.373-15.36 8.909-0.82 0.717-3.38 2.253-5.632 3.482-2.253 1.228-6.144 3.686-8.704 5.53-9.933 7.167-16.998 12.492-18.227 13.72a307.69 307.69 0 0 1-6.144 5.12c-8.192 6.657-28.877 27.137-34.304 34.1-2.867 3.686-5.53 6.86-5.94 7.168-1.433 1.126-12.287 16.794-15.36 22.323-1.843 3.175-3.686 6.042-3.993 6.349-1.434 1.024-16.486 30.72-21.3 41.984-6.758 15.974-13.72 36.864-13.209 39.629 0.205 1.229 0.103 2.048-0.307 1.843-1.126-0.717-3.277 8.602-2.458 10.957 0.41 1.536 0.308 1.843-0.614 1.331-1.024-0.614-1.126-0.102-0.614 1.946 0.41 1.638 0.204 2.662-0.512 2.662s-0.82 1.126-0.41 3.174c0.512 2.356 0.41 2.97-0.41 2.458s-1.024 0.102-0.512 1.946c0.308 1.433 0.205 2.662-0.204 2.662-0.512 0-1.024 2.765-1.127 6.144-0.102 3.38-0.512 6.554-0.819 7.168-0.82 1.331-0.922 2.56-2.048 32.768-1.229 30.72 0.922 49.869 9.42 86.528 2.97 12.902 9.422 32.256 10.65 32.256 1.23 0 1.23 0.307-1.228-7.066-1.127-3.584-1.844-6.963-1.741-7.475 0.205-0.614 1.945 3.891 3.789 10.035 1.843 6.144 3.89 11.776 4.403 12.39 0.614 0.718 0.717 1.332 0.307 1.332-0.512 0-0.102 0.82 0.82 1.74 1.638 1.844 1.74 2.151 1.74 5.018 0 0.922 0.512 1.23 1.229 0.82 0.717-0.41 0.819-0.308 0.41 0.512-0.922 1.33 2.355 9.318 3.89 9.318 0.513 0 0.615 0.307 0.308 0.614-0.307 0.41-0.103 1.639 0.512 2.868 0.717 1.126 1.331 2.355 1.331 2.662 0.102 1.74 2.97 7.168 3.686 7.168 0.512 0 0.82 0.307 0.82 0.717-0.41 2.253 0.307 4.198 2.15 6.246 1.229 1.229 1.843 2.253 1.434 2.253-0.41 0 0.102 0.922 1.126 2.048s1.434 2.048 1.024 2.048c-0.512 0 0.205 1.229 1.638 2.765 1.332 1.433 1.741 2.355 0.922 1.843-0.82-0.41-0.512 0.205 0.82 1.434 1.228 1.228 2.047 2.662 1.74 3.174-0.307 0.41 0.205 1.126 1.126 1.434 0.922 0.41 1.434 0.921 1.024 1.33-0.307 0.41 0.41 1.844 1.639 3.175 1.331 1.434 1.638 2.253 0.819 1.843-0.82-0.41-0.614 0 0.512 0.922s1.946 2.048 1.843 2.56c-0.102 0.41 0.41 1.434 1.229 2.048 0.82 0.717 1.536 1.946 1.536 2.662 0 0.82 0.41 1.434 0.922 1.434s3.379 3.38 6.348 7.373c8.397 11.673 11.264 15.36 16.794 21.811 14.029 16.486 35.738 38.195 46.285 46.285 1.536 1.229 3.993 3.174 5.427 4.403a572.48 572.48 0 0 0 4.813 4.096c1.229 1.024 4.505 3.482 7.168 5.325 2.662 1.843 6.553 4.608 8.499 6.144 1.946 1.536 8.602 5.325 14.848 8.601 6.144 3.175 13.107 6.964 15.36 8.397 7.987 5.018 32.768 16.589 34.406 16.077 1.024-0.307 6.759 1.229 12.903 3.482 16.691 6.144 23.142 8.294 24.371 8.192 0.512 0-3.686-1.844-9.523-4.199-5.837-2.253-10.445-4.3-10.24-4.505 0.205-0.205 2.867 0.614 5.939 1.74 6.86 2.56 23.245 7.066 23.86 6.452 0.204-0.205 6.143 0.921 13.106 2.56 6.964 1.74 15.975 3.276 19.866 3.584l7.168 0.614-8.192-1.946c-25.088-5.632-52.02-14.13-71.68-22.323-12.39-5.222-37.274-17.408-38.4-18.841-0.307-0.41-1.536-0.922-2.765-1.332-1.331-0.41-2.97-1.33-3.584-1.945-0.717-0.717-4.813-3.277-9.011-5.837-4.198-2.458-8.09-4.915-8.704-5.325-0.512-0.512-4.198-3.174-8.192-5.939-7.782-5.53-12.493-9.114-14.234-10.854-0.614-0.615-1.945-1.536-2.97-2.048-6.86-3.892-49.868-47.924-49.868-51.2 0-0.41-1.536-2.458-3.277-4.404-1.843-1.945-2.457-2.97-1.433-2.15 1.126 0.82 4.403 4.506 7.27 8.192 5.837 7.168 20.48 22.22 31.437 32.256 7.782 7.168 10.035 9.011 20.275 16.691 4.198 3.277 8.294 6.451 9.011 7.066 0.717 0.717 1.741 1.331 2.253 1.331s1.536 0.614 2.253 1.331c0.717 0.717 4.3 3.175 7.987 5.53 3.686 2.355 7.168 4.71 7.68 5.12 6.86 5.734 55.603 29.696 58.266 28.57 0.614-0.205 0.512-0.513-0.308-0.513-1.638-0.102-37.068-17.408-37.99-18.534-0.307-0.307-4.403-2.765-9.216-5.53-7.885-4.403-18.227-11.673-12.595-8.908 1.638 0.819 2.355 0.819 2.662-0.205 0.307-0.717 0.615-0.41 0.615 0.614 0.102 1.024 0.614 1.536 1.126 1.229 0.614-0.307 1.024-0.102 1.024 0.512s0.41 0.82 1.024 0.512c0.512-0.307 1.024-0.205 1.024 0.307s0.614 0.922 1.331 0.922c0.615 0 6.042 2.662 11.981 5.939 11.366 6.349 33.075 16.486 44.032 20.582 27.546 10.445 60.314 17.716 89.6 20.07 21.709 1.64 69.12 1.64 83.456-0.102 9.523-1.126 28.774-4.3 34.304-5.632 1.126-0.204 6.451-1.433 11.776-2.662 11.571-2.56 23.962-6.144 23.347-6.656-0.205-0.307-2.15 0-4.3 0.614-4.301 1.23-4.199 1.127-14.439 3.38-9.011 2.048-13.005 1.945-6.144-0.103 27.75-8.192 40.243-12.39 58.573-19.968 31.232-12.8 59.699-30.208 94.515-58.06 15.155-12.084 49.664-45.569 48.64-47.207-0.512-0.82-4.813 2.765-16.691 14.029-3.072 2.97-5.837 5.427-6.042 5.427-0.205 0-1.433 1.024-2.765 2.253-2.15 2.253-5.53 5.12-17.408 15.155-2.764 2.355-6.246 5.018-7.68 5.94-1.433 0.92-3.379 2.252-4.198 2.969-4.096 3.277-14.746 11.264-16.896 12.595-1.331 0.82-5.222 3.482-8.704 5.837-3.482 2.457-6.758 4.403-7.168 4.403-0.41 0-1.331 0.717-2.048 1.536s-1.638 1.331-2.048 1.024c-0.512-0.307-1.024-0.102-1.229 0.307-0.41 1.024-13.107 8.602-13.107 7.783 0-0.308-1.331 0.41-2.867 1.536-2.56 1.74-9.728 4.3-8.397 2.867 0.307-0.205 3.072-1.843 6.144-3.584 9.626-5.12 13.517-7.373 19.354-11.264 3.174-2.048 6.246-3.994 6.758-4.301 1.74-0.82 13.312-8.909 20.685-14.438 15.462-11.47 43.827-38.4 56.73-53.76 4.198-5.018 7.884-9.319 8.191-9.626 0.308-0.307 0.82-1.434 1.23-2.56 0.614-1.74 0.409-1.74-1.025 0.307-0.819 1.229-3.277 4.096-5.325 6.247-2.048 2.15-6.45 7.065-9.83 10.956-9.626 11.06-25.088 26.112-36.045 34.919a339.409 339.409 0 0 1-4.096 3.379c-1.024 0.922-4.198 3.174-6.963 5.12-2.867 1.843-7.27 5.222-9.83 7.373-2.663 2.15-5.223 3.891-5.837 3.891-0.512 0-1.639 0.717-2.355 1.638-0.717 0.922-2.253 2.048-3.482 2.56-1.126 0.512-3.38 1.844-5.12 2.97-1.638 1.126-4.915 2.97-7.168 4.096-5.53 2.867-8.09 4.403-8.909 5.632-0.41 0.512-0.819 0.614-0.819 0.102s-0.922-0.102-2.048 0.922-2.048 1.536-2.048 1.229c0-0.41-2.253 0.717-5.12 2.355-2.765 1.638-5.12 2.56-5.12 1.946 0-0.512 1.229-1.536 2.867-2.253 2.355-1.127 6.656-3.482 16.077-9.216a368.082 368.082 0 0 0 5.325-3.482c1.74-1.331 3.481-2.355 3.891-2.355 0.307 0 1.126-0.512 1.843-1.126 0.717-0.615 4.301-3.175 7.987-5.837 17.613-12.493 25.19-18.74 39.015-31.847 6.144-5.939 8.601-8.908 7.782-9.42-0.921-0.615-0.614-1.332 1.024-2.765 1.229-1.127 2.253-2.56 2.253-3.277 0-0.717 0.307-1.126 0.614-0.717 0.922 0.922 22.733-21.606 29.082-30.105 1.434-1.844 3.482-4.404 4.608-5.632 3.584-3.892 22.323-30.823 22.118-31.744-0.204-0.41 0.41-1.127 1.332-1.639s1.638-1.843 1.638-2.97c0-1.126 0.512-1.74 1.024-1.433 0.614 0.307 1.024 0 1.024-0.82 0-2.15 2.662-6.962 3.38-6.143 0.409 0.307 0.716 0.102 0.716-0.512s1.536-3.789 3.38-7.066c4.505-7.68 12.697-22.937 15.871-29.491 11.367-23.347 15.155-31.846 16.18-35.738 0.614-2.662 0.511-2.764-1.332-1.843-2.457 1.331-7.475 11.367-12.902 25.805-1.434 3.686-3.38 8.704-4.403 11.264-2.663 6.349-18.535 35.635-21.504 39.526-1.332 1.741-2.458 3.482-2.458 3.994 0 0.82-19.149 28.467-22.323 32.051-1.127 1.229-3.072 3.891-4.403 5.735-1.23 1.843-3.175 3.993-4.301 4.608-1.331 0.921-0.922-0.205 1.433-3.687 1.844-2.662 3.687-5.12 3.994-5.427 1.434-1.024 20.582-30.925 20.173-31.437-0.307-0.205-3.584 4.096-7.475 9.626-9.933 14.54-17.716 24.678-22.733 29.798-5.223 5.223-6.656 5.325-2.253 0.205 2.97-3.482 3.789-5.12 2.458-5.12-0.41 0-2.458 1.946-4.71 4.3l-3.994 4.404 2.867-4.096c1.536-2.253 3.072-4.3 3.379-4.608 2.867-2.662 11.162-15.667 10.65-16.691-0.41-0.717-0.41-0.922 0.102-0.512 0.41 0.41 1.331 0.307 2.048-0.205 0.82-0.717 1.229-0.512 1.229 0.512 0 0.82-0.41 1.536-0.922 1.536-0.41 0-0.819 0.717-0.819 1.536s-0.41 1.536-1.024 1.536c-0.512 0-1.024 0.41-1.024 1.024 0 2.867 4.198-2.048 4.506-5.325 0.102-0.41 0.819-1.536 1.638-2.56 4.198-5.017 11.162-16.384 9.216-15.155-0.512 0.307-1.024 0.102-1.024-0.512s-0.512-0.82-1.024-0.512c-0.614 0.41-0.82 1.536-0.512 2.56 0.307 1.024 0.102 2.15-0.41 2.56-0.716 0.41-0.921-0.102-0.512-1.229 0.41-1.126-0.41-0.717-2.252 1.229l-2.765 3.072 1.843-3.072c4.506-7.475 6.963-10.65 7.782-10.24 0.41 0.307 1.127 0 1.536-0.614 0.41-0.82 0.308-0.922-0.41-0.512-2.047 1.228-1.33-1.434 1.64-5.837a838.504 838.504 0 0 0 4.095-6.349c2.355-3.789 12.186-24.576 19.251-40.653 3.892-8.806 7.373-15.872 7.68-15.565 0.41 0.205 0.512-0.614 0.103-1.843-0.307-1.433-0.103-1.945 0.614-1.433 0.82 0.512 1.024 0.102 0.512-1.024-0.512-1.332-0.307-1.536 0.717-0.922s1.229 0.307 0.82-1.331c-0.41-1.229-0.308-2.048 0.102-1.741 1.126 0.614 4.403-10.547 3.584-11.98-0.41-0.718-0.308-0.82 0.41-0.41 1.638 1.024 6.45-15.053 5.734-19.252-0.512-2.56-0.308-2.867 0.614-1.638 1.024 1.331 1.126 1.331 0.717-0.205-0.307-0.921 0.512-6.656 1.945-12.8 5.325-23.552 10.855-65.126 10.548-79.565-0.103-6.45-0.717-3.276-1.844 9.626-1.638 18.74-3.481 31.54-4.198 28.774-0.307-1.638-1.229 1.332-2.458 8.704-0.921 6.144-2.662 15.463-3.788 20.788-1.024 5.222-1.639 10.752-1.23 12.185 0.41 1.946 0.308 2.355-0.716 1.741-0.922-0.512-1.126-0.41-0.614 0.307 0.41 0.615-0.205 5.018-1.332 9.626-2.048 8.601-13.004 40.96-16.486 48.435a457.428 457.428 0 0 0-5.12 11.776c-2.867 6.758-7.885 16.691-17.818 35.328-1.536 2.765-3.379 5.734-4.198 6.656-0.82 0.922-1.536 2.15-1.536 2.765 0 0.614-0.717 1.433-1.638 1.74-0.82 0.308-1.23 1.025-0.922 1.639 0.307 0.512 0.102 1.024-0.614 1.024s-1.024 0.307-0.615 0.614c0.307 0.41-0.205 1.434-1.229 2.356-1.024 0.921-4.71 6.246-8.294 11.878s-6.758 10.445-7.066 10.752c-0.307 0.307-2.662 3.277-5.222 6.656-5.837 7.68-6.963 9.114-10.957 13.722-1.843 2.048-3.379 3.993-3.379 4.403 0 0.512-0.512 0.819-1.126 0.819-0.615 0 0.307-1.74 2.048-3.891 7.475-8.909 8.294-10.24 7.68-11.879-0.615-1.638-0.82-1.638-2.56 0-1.332 1.127-1.741 2.56-1.332 3.892 0.41 1.74 0.308 1.843-0.614 0.614-0.922-1.331-1.126-1.331-2.048 0-2.458 3.891-2.97 4.506-3.38 4.096-0.409-0.41 9.626-14.438 14.132-19.66 0.82-1.025 3.277-4.506 5.325-7.68 2.15-3.278 4.505-6.554 5.222-7.271 2.458-2.663 15.155-24.986 23.143-40.755 5.12-10.138 14.233-32.256 13.619-32.87-0.307-0.206-1.024 1.126-1.741 2.969-3.891 9.523-13.107 29.491-13.824 29.491-0.205 0-0.205-0.82 0.102-1.843 0.922-2.765-2.867 3.584-7.168 12.083-2.252 4.198-5.939 10.65-8.294 14.336-2.355 3.686-5.734 9.114-7.68 11.98-1.843 2.97-3.789 5.428-4.3 5.428s-0.615 0.614-0.206 1.229c0.615 1.024 0.41 1.024-0.819 0-1.331-1.024-1.843-1.024-2.457-0.103-0.41 0.82-0.308 0.922 0.41 0.512s1.228-0.41 1.228-0.102c0 0.82-3.994 6.554-5.837 8.5-0.717 0.716-1.331 1.638-1.331 2.047 0 0.41-1.024 1.946-2.355 3.482a237.005 237.005 0 0 0-5.632 6.86c-1.843 2.253-4.608 5.428-6.144 7.066-1.536 1.639-4.403 4.915-6.349 7.373-9.728 12.083-31.949 34.406-46.08 46.182-8.806 7.373-27.34 20.378-29.082 20.378-0.819 0-1.945 0.717-2.764 1.638-1.127 1.332-8.91 5.94-12.698 7.476-0.512 0.204 1.638-1.741 4.813-4.301 3.174-2.663 6.041-4.813 6.349-4.813 0.512 0 20.377-14.336 25.19-18.125 2.458-1.945 15.565-12.902 18.74-15.667 7.68-6.758 30.412-30.106 37.99-39.014 6.041-7.27 17.305-22.528 16.793-22.938-0.307-0.41-4.3 3.994-9.523 10.547-0.512 0.717-2.355 2.867-4.096 4.71-1.638 1.946-5.018 5.735-7.373 8.397-10.035 11.776-21.709 23.86-31.334 32.564-10.445 9.318-22.016 19.046-22.63 19.046-0.308 0-1.434 0.614-2.356 1.434-3.379 2.764-27.955 19.046-28.57 19.046-0.409 0-2.252 1.126-4.095 2.56-1.844 1.434-3.79 2.56-4.404 2.56-0.614 0-3.276 1.331-5.939 2.867-2.662 1.536-6.758 3.687-9.011 4.71-28.57 13.313-30.925 14.234-38.912 16.692-2.765 0.819-5.734 2.048-6.349 2.56-0.717 0.614-1.331 0.819-1.331 0.512 0-0.307-3.584 0.717-7.987 2.355-4.301 1.536-9.319 3.072-10.957 3.38-1.74 0.306-5.837 1.228-9.216 2.047-3.38 0.922-7.475 1.843-9.216 2.15-1.638 0.308-4.198 0.82-5.632 1.127-5.222 1.024-8.806 1.536-14.848 2.048-4.3 0.307-2.048-0.41 7.68-2.458 25.19-5.324 37.274-8.601 51.2-14.028 12.902-5.018 25.6-11.06 21.606-10.24-3.379 0.716-1.536-0.717 3.994-2.97 2.56-1.024 5.427-2.56 6.451-3.38 0.922-0.818 1.741-1.228 1.741-0.818 0 0.41 1.536-0.41 3.38-1.741 1.74-1.331 3.993-2.765 4.812-3.175 0.82-0.307 3.174-1.638 5.12-2.867 1.946-1.126 4.506-2.662 5.632-3.277 5.837-3.276 22.016-13.926 22.016-14.54 0-0.615-5.222 2.457-11.776 6.758-2.253 1.536-5.12 3.072-6.349 3.482-1.126 0.41-2.765 1.33-3.379 2.15-0.717 0.82-1.946 1.536-2.867 1.536-1.741 0 2.15-3.277 5.222-4.403 2.663-1.024 24.576-16.077 26.112-17.92 0.615-0.922 1.229-1.331 1.229-1.024 0 0.307 1.229-0.512 2.867-1.843 1.536-1.332 6.247-5.223 10.445-8.807 9.216-7.577 34.202-32.46 38.4-38.195 1.74-2.253 3.277-4.3 3.584-4.608 1.126-0.922 15.053-19.968 18.022-24.474 1.639-2.457 4.916-7.577 7.27-11.264 2.356-3.686 4.711-7.27 5.223-7.782 1.843-2.253 11.571-20.275 16.589-30.822 6.451-13.62 11.06-24.679 15.258-36.66 3.686-10.342 3.584-13.21 0-3.788-1.332 3.379-2.765 5.836-3.277 5.53-0.512-0.308-0.615 0.409-0.205 1.74 0.512 1.434 0.307 2.048-0.307 1.638-0.615-0.307-1.331 0-1.639 0.615-1.024 2.56 0.615-4.915 2.56-10.957 6.554-21.197 12.493-49.357 13.62-65.024 0.307-4.198 0.921-12.8 1.33-18.944 1.23-16.691 0.82-58.06-0.614-68.608-0.716-5.12-1.536-11.264-1.843-13.824-1.229-11.264-7.168-40.55-9.728-47.616-0.614-1.74-2.15-5.427-3.481-8.397-1.332-2.867-2.458-5.632-2.458-6.144 0-0.41-1.434-4.3-3.174-8.499-1.741-4.198-3.277-8.397-3.482-9.216-1.126-5.018-13.517-30.618-20.685-42.7-8.806-15.054-18.637-29.39-19.558-28.57-0.307 0.307 0.307 1.536 1.331 2.662s1.434 2.048 1.024 2.048c-0.41 0-0.102 0.82 0.82 1.843 1.023 1.024 1.433 2.253 1.023 2.56-0.307 0.41-0.102 0.717 0.615 0.717 0.819 0 1.126 0.614 0.716 1.638-0.307 0.82-0.204 1.332 0.308 1.024 0.512-0.307 1.228 0.103 1.536 1.024 0.307 0.82 0.204 1.23-0.41 0.922-1.024-0.614 0.922 4.506 2.048 5.632 0.512 0.512 6.554 12.698 12.288 24.576 1.229 2.56 5.018 11.776 8.397 20.48 3.379 8.704 6.349 16.18 6.656 16.589 0.205 0.512 0 0.819-0.512 0.819s-2.15-2.97-3.789-6.656c-1.536-3.686-3.277-6.656-3.789-6.656s-0.614 0.614-0.205 1.229c0.512 0.717 0.922 1.945 1.024 2.867 0 0.82 0.717 3.584 1.434 6.144 0.82 2.56 1.434 4.813 1.536 5.12 0 0.307 1.126 3.686 2.355 7.68 4.403 13.722 5.325 17.51 8.397 32.768 1.74 8.397 3.277 16.486 3.482 17.92 0.204 1.434 0.614 4.608 1.024 7.168 2.457 17.203 3.584 55.603 2.252 75.776-1.33 20.48-2.355 20.685-1.843 0.512 0.307-10.752 0.205-19.251-0.102-18.944-0.205 0.307-0.82 6.656-1.127 14.131-0.716 13.927-3.481 35.328-6.144 47.309-0.819 3.686-2.15 9.83-3.072 13.824-6.656 30.413-16.998 58.778-30.412 83.66-3.994 7.476-7.68 13.825-7.988 14.132-0.41 0.307-2.252 3.072-4.096 6.144-8.704 14.643-21.913 30.822-40.755 49.869-11.98 12.083-23.859 23.142-23.859 22.22 0-0.204-0.82 0.41-1.843 1.332-1.024 1.024-3.175 2.867-4.813 4.096-6.042 4.608-11.264 8.601-12.8 9.83-4.71 3.789-33.382 21.197-34.918 21.197-0.41 0-2.56 1.024-4.71 2.253-11.06 6.553-38.503 17.305-54.375 21.401-2.867 0.717-4.813 1.639-4.199 2.048 1.434 0.82 0.41 1.127-12.39 3.892-21.811 4.608-34.611 5.836-60.416 5.632-27.546-0.205-59.597-5.325-83.968-13.415-43.93-14.54-77.005-34.304-106.394-63.693-26.828-26.726-44.441-53.145-58.47-87.654-3.38-8.294-7.782-21.504-8.602-26.112-0.204-1.434-0.512-2.56-0.614-2.56-0.102 0-0.307-0.922-0.41-2.048-0.204-1.126-0.819-4.813-1.433-8.192-9.011-47.923-5.12-99.43 10.24-136.192 5.222-12.595 9.011-20.275 14.848-30.106 5.734-9.625 16.486-24.678 17.817-24.678 0.41 0 3.687-3.072 7.168-6.758 6.144-6.35 13.517-13.62 20.378-19.968 1.638-1.536 4.71-4.096 6.86-5.632 2.151-1.639 4.506-3.482 5.223-4.199 3.277-3.072 22.323-15.053 32.973-20.582 28.058-14.643 57.754-21.709 91.75-21.709 41.78 0 78.95 11.98 111.514 35.84 5.12 3.789 13.414 10.65 18.432 15.36 7.168 6.758 7.885 7.168 3.072 2.15-18.944-19.763-48.026-37.888-74.957-46.694-2.97-0.922-5.427-1.843-5.427-2.15 0-1.946 26.42 7.884 37.888 14.13 9.728 5.326 23.552 14.644 30.208 20.378 12.8 11.06 28.98 29.287 31.232 35.226 0.614 1.536 3.072 6.042 5.53 10.138 10.24 16.793 17.51 34.61 21.606 52.838 0.922 4.198 2.15 8.5 2.662 9.42 0.512 1.025 0.922 3.175 0.922 4.916 0 1.638 0.512 3.072 1.126 3.072 0.512 0 0.82 0.41 0.41 0.922-0.307 0.512-0.102 1.228 0.512 1.638 1.536 0.922 1.229 23.757-0.41 35.328-2.15 15.155-7.68 33.894-14.438 48.64-10.445 23.142-29.9 44.646-54.682 60.723-4.812 3.175-9.728 6.554-10.752 7.578-1.126 1.024-2.56 1.843-3.276 1.843-0.717 0-1.434 0.41-1.639 0.82-0.512 1.126-11.878 6.04-19.353 8.294-33.076 9.932-69.735 6.45-99.124-9.216-12.8-6.861-22.63-14.336-32.972-25.293-6.554-6.759-7.68-7.783-5.018-3.891 6.349 8.908 21.402 21.606 33.792 28.57 8.192 4.607 7.373 4.914-1.331 0.614-21.402-10.752-41.063-30.208-51.712-50.996-2.458-4.812-4.199-7.68-3.789-6.246 1.434 5.018 9.011 19.046 14.336 26.624 9.933 14.029 26.931 29.286 41.78 37.376 8.089 4.506 9.215 5.837 1.535 1.946-10.65-5.325-23.347-14.95-32.973-24.986-14.848-15.565-22.323-27.443-28.57-46.08-14.13-41.574-3.993-85.197 26.932-115.507 3.994-3.891 13.824-11.469 14.95-11.469 0.41 0 1.536-0.614 2.356-1.434 2.662-2.457 19.148-8.601 27.238-10.342 14.336-2.97 33.894-1.331 48.128 4.096 3.686 1.331 6.451 2.048 6.144 1.536-2.97-4.915 15.565 7.885 22.016 15.155 6.042 6.656 11.776 15.667 12.902 20.07 0.717 2.97 0.717 2.97-1.228 1.025-1.127-1.024-3.38-3.892-5.018-6.35-6.042-9.01-20.992-20.48-34.202-26.214-26.521-11.673-58.06-6.86-83.558 12.493-9.42 7.27-11.571 9.319-18.227 18.125-9.319 12.39-16.896 29.696-19.559 44.954-1.74 10.035-2.15 23.142-0.716 23.142 0.716 0 0.921 1.536 0.512 4.3-0.41 2.458-0.308 3.994 0.204 3.585 0.41-0.41 1.332 0.921 1.946 3.072 0.922 3.072 1.024 1.024 0.717-10.138-0.615-19.865 2.15-34.918 9.216-49.664 5.222-10.854 6.758-11.878 2.253-1.536-4.096 9.626-6.861 19.968-6.042 22.733 0.41 1.126 0.307 2.048-0.205 2.048-0.921 0-0.921 25.395 0 30.003 0.307 1.536 1.127 5.53 1.741 8.807 1.638 9.01 4.506 16.69 10.24 27.238 2.765 5.222 4.71 9.83 4.3 10.24-0.409 0.512-0.204 0.512 0.41 0.205 0.717-0.41 2.97 1.843 5.325 5.222 3.994 5.632 16.589 18.842 16.589 17.306 0-0.307-2.56-3.38-5.734-6.554-5.428-5.53-12.288-14.233-14.132-17.715-0.41-0.82 0.922 0.41 2.97 2.765 2.048 2.457 4.3 4.403 4.915 4.403 0.717 0 3.789 2.56 6.861 5.734 7.782 7.885 15.974 13.415 29.184 19.661 35.942 16.896 74.24 16.077 111.718-2.457 29.799-14.848 50.484-38.196 63.898-72.09 7.27-18.33 8.5-25.6 8.5-48.128 0-29.082-2.97-43.827-13.415-67.584-12.083-27.546-31.949-51.405-56.627-67.789-22.528-14.95-43.11-23.654-66.356-27.955-40.55-7.475-75.57-3.174-112.742 14.029-6.451 2.97-21.504 11.878-21.504 12.697 0 1.024 2.048 0.308 3.482-1.228 0.921-0.82 1.638-1.332 1.638-1.024 0 0.307 2.355-0.82 5.12-2.458 2.867-1.74 5.632-3.072 6.144-3.072 0.41 0 1.024-0.307 1.229-0.82 0.717-1.638 21.913-10.342 26.931-11.058 1.126-0.103 2.048-0.308 2.048-0.41 0-0.102 1.638-0.41 3.584-0.614 1.946-0.103 8.909-1.23 15.36-2.356 6.451-1.126 14.131-2.048 16.896-1.945h5.12l-5.12 1.126c-2.765 0.512-5.325 1.331-5.632 1.639-0.307 0.41-5.325 1.74-11.264 3.072-24.064 5.12-45.978 14.336-62.464 26.112-48.23 34.304-77.414 79.667-85.3 132.71-4.095 27.75-3.993 50.38 0.41 75.264 2.663 15.155 11.572 41.574 18.842 55.706 8.09 15.872 26.624 40.448 43.008 57.036 14.029 14.234 21.3 20.276 36.864 30.413 10.035 6.656 34.304 18.33 34.304 16.589 0-0.205-3.277-2.15-7.168-4.198-7.578-3.994-9.114-5.632-2.662-2.97 5.939 2.458 3.481 0.102-4.301-4.096-3.789-2.15-7.066-4.096-7.373-4.506-0.307-0.41-2.048-1.638-3.891-2.764-1.843-1.024-3.072-2.458-2.765-3.277 0.205-0.717-0.102-1.229-0.82-1.127-0.614 0.103-1.945 0.103-2.764 0-1.331-0.102-1.331-0.307-0.102-1.024 1.945-1.228 5.53 0.615 4.608 2.15-0.41 0.718-0.205 0.82 0.512 0.41 0.716-0.512 4.3 0.82 8.396 2.97 3.892 2.048 7.066 3.482 7.066 3.174 0-0.204 4.71 1.741 10.547 4.404 24.576 11.57 50.893 18.636 74.957 20.07 5.632 0.41 12.39 0.82 15.155 1.024 2.663 0.205 4.813-0.102 4.813-0.614s-1.946-1.024-4.3-1.127c-2.458 0-4.814-0.205-5.428-0.307-0.512-0.102-3.789-0.512-7.168-0.922s-6.86-1.024-7.68-1.433c-2.662-1.024 10.24-1.946 22.528-1.536 7.373 0.205 11.06 0 9.728-0.512-1.126-0.512-5.734-1.024-10.24-1.127-11.878-0.307-35.02-3.788-48.64-7.372-18.944-5.018-34.1-11.47-54.784-23.245-6.656-3.789-23.04-15.258-25.088-17.51-0.307-0.308-3.277-2.97-6.656-5.735-8.5-7.066-21.094-20.07-20.787-21.504 0.205-0.614 0-1.024-0.307-1.024-1.127 0-5.018-3.789-5.018-4.915 0-0.512 0.82-0.307 1.843 0.41 1.536 1.33 1.639 1.228 0.307-0.308-0.716-1.024-1.74-1.536-2.252-1.331-1.024 0.717-3.175-3.072-2.15-4.096 0.409-0.307 0-0.512-0.82-0.307-0.922 0.205-1.536-0.41-1.536-1.434s-1.024-2.56-2.355-3.481c-1.229-0.82-2.048-1.946-1.741-2.458 0.307-0.512-0.41-2.56-1.638-4.506-2.356-4.096-3.687-5.017-1.946-1.433 1.126 2.355 1.126 2.355-0.512 0.307-0.922-1.126-2.15-2.97-2.765-4.096-1.024-1.843-1.024-1.946 0.512-0.614 1.127 0.921 0.82-0.308-1.024-3.584-2.97-5.53-3.993-6.964-3.072-4.199 0.41 1.127 0.307 1.639-0.41 1.229-0.614-0.41-0.819-1.434-0.511-2.253 0.307-0.819-0.512-3.891-1.946-6.758-3.482-7.578-9.42-24.269-12.288-35.021-9.83-37.069-7.68-79.565 5.734-112.64 2.356-5.632 4.301-10.854 4.301-11.571 0-0.615 0.41-1.229 0.922-1.229s0.614-0.512 0.307-1.024c-0.307-0.614-0.102-1.024 0.512-1.024s0.922-0.41 0.614-0.922c-0.41-0.512-0.204-1.126 0.41-1.33 0.614-0.206 1.229-1.332 1.536-2.663 0.205-1.229 3.891-7.578 8.294-14.131 7.783-11.879 23.143-28.57 38.81-42.292 3.38-2.97 5.427-5.017 4.608-4.71-0.82 0.41-0.614 0 0.41-0.922 1.024-0.819 2.355-1.33 2.97-0.921 0.614 0.307 0.716 0.205 0.409-0.307-0.512-0.922 12.185-9.012 21.299-13.517 6.042-2.97 22.63-8.09 34.611-10.65 13.824-2.97 42.087-3.174 57.549-0.41 28.57 5.12 52.736 17.409 72.397 36.865 5.222 5.12 10.24 10.24 11.059 11.366 16.077 21.3 24.064 39.322 28.058 63.488 2.867 17.306 0.921 40.755-4.608 55.808-3.277 8.806-11.06 23.654-14.746 28.16-11.469 13.926-29.696 29.798-39.424 34.406-18.227 8.704-43.11 12.186-60.62 8.602-25.498-5.222-46.695-20.787-57.55-42.189-7.782-15.462-8.908-35.635-2.97-52.633 6.452-18.74 18.638-31.642 33.998-36.148 7.782-2.252 19.968-2.15 25.292 0.308 7.168 3.276 6.759 4.505-1.228 3.584-15.668-1.741-29.696 0.102-36.148 4.812-7.065 5.12-18.432 28.672-18.534 38.298 0 2.662 0.307 3.584 0.922 2.662 0.716-1.126 0.921-1.126 1.433 0 0.512 1.23 0.82 1.127 1.639-0.102 0.512-0.82 1.74-2.458 2.56-3.584 1.536-2.048 1.536-2.048 1.638 0.205 0 1.229 0.512 2.56 1.024 2.867 0.614 0.307 1.024-0.102 1.024-0.922 0-6.348 10.65-23.142 16.691-26.419 2.15-1.126 2.15-1.126 0.41 1.331-0.922 1.332-2.458 3.482-3.38 4.813-0.921 1.229-1.843 3.789-2.047 5.632-0.205 1.843-0.615 3.789-0.82 4.506-0.307 0.717 0.103 1.024 1.024 0.614 1.741-0.614 1.741-0.921 0 4.915-0.921 2.868-1.433 9.319-1.433 15.872 0 10.343 0.205 11.572 2.97 16.794 1.638 3.174 4.095 6.86 5.324 8.192 1.229 1.434 3.891 4.71 6.042 7.27 2.15 2.765 6.246 5.94 9.933 7.988 7.577 3.993 9.01 5.836 4.096 4.915-6.964-1.229 4.71 3.174 12.902 4.915 11.366 2.355 21.197 1.946 31.846-1.126 15.463-4.404 27.853-12.288 40.141-25.498 5.837-6.246 6.963-7.168 5.12-3.994-1.229 2.15-6.144 7.885-10.752 12.698-9.42 9.83-21.913 18.022-32.051 21.094-3.38 1.024-6.144 2.253-6.144 2.765 0 0.41 0.82 0.615 1.843 0.307 0.922-0.307 3.277-0.819 5.223-1.126 8.908-1.536 28.672-11.878 32.153-16.896 0.82-1.229 2.048-1.946 2.663-1.638 1.024 0.614 6.246-3.584 6.246-5.12 0-0.41-1.434 0.512-3.277 2.252-3.584 3.175-2.253 1.127 2.867-4.812 7.885-9.012 15.053-22.63 18.637-35.328 1.741-6.452 1.946-8.807 1.127-23.04-0.922-17.613-1.844-23.245-5.632-35.226-5.632-17.306-16.487-34.509-30.413-48.128-21.095-20.48-43.213-30.003-77.517-33.28l-9.728-0.922 10.24 0.41c12.186 0.512 21.197 1.946 30.106 4.71 3.584 1.024 7.577 1.741 8.704 1.434 1.74-0.512 1.843-0.41 0.614 0.512-1.229 0.922-1.024 1.024 0.922 0.512 1.33-0.41 2.15-0.307 1.843 0.205-0.307 0.512 2.048 2.253 5.222 3.789 18.74 9.113 37.786 25.088 48.23 40.55 5.018 7.373 9.729 16.077 11.367 20.89 0.614 2.048 1.434 3.584 1.74 3.276 1.332-1.228-6.246-17.715-11.98-26.214-4.198-6.246-18.125-21.606-19.251-21.197-1.331 0.41-7.27-4.71-6.656-5.734 0.307-0.615 0.102-0.717-0.512-0.307-1.434 0.921-5.837-1.946-5.837-3.79 0-0.614-0.82-1.126-1.843-0.92-1.024 0.204-1.639-0.308-1.536-0.922 0.205-0.717-0.82-1.332-2.253-1.332-1.434-0.102-2.56-0.614-2.56-1.33 0-0.615-0.41-1.537-0.922-2.049s-0.614-0.307-0.204 0.41c1.024 1.843-0.615 1.638-3.072-0.205-1.946-1.536-1.946-1.536 0.102-1.024 1.126 0.307-1.638-1.331-6.144-3.584-11.264-5.632-26.112-9.318-38.4-9.523-5.325-0.103-10.035-0.717-10.445-1.229-0.512-0.614-0.819-0.512-0.819 0.205 0 0.921-2.15 1.331-7.578 1.331-26.316 0-58.47 12.083-81.51 30.515-21.606 17.408-38.195 41.677-48.128 70.247-5.325 15.564-7.168 26.93-7.885 49.459-0.614 19.558 3.482 41.881 11.264 61.44 1.434 3.481 2.355 6.451 2.15 6.758-1.433 1.434 19.969 37.581 22.324 37.581 0.41 0 0.819 0.717 0.819 1.536s0.717 1.536 1.536 1.536 1.536 0.41 1.536 1.024c0 1.024 28.262 29.696 29.286 29.696 0.308 0-0.819-1.229-2.355-2.662l-2.867-2.56 3.277 2.252c1.843 1.23 2.97 2.765 2.662 3.584-0.307 0.82 0.103 1.434 1.024 1.434 0.82 0 1.741 0.717 2.048 1.536 0.307 0.82 1.536 1.229 2.56 1.024 1.331-0.205 1.946 0.205 1.843 1.229 0 0.921 0.82 1.74 1.844 1.945 1.024 0.103 2.252 0.82 2.764 1.536 0.41 0.717 1.536 1.434 2.56 1.536 1.024 0.205 2.663 1.332 3.584 2.56 0.922 1.23 2.15 1.946 2.765 1.536 0.512-0.307 1.331 0.103 1.639 1.024 0.307 0.82 1.126 1.434 1.843 1.332 2.765-0.308 3.993 0.102 3.277 1.33-0.41 0.718-0.308 0.82 0.41 0.41s1.228-0.307 1.228 0.308 0.717 0.716 1.74 0.41c1.127-0.41 1.434-0.308 0.922 0.511-0.512 0.82-0.102 1.024 1.024 0.512 1.23-0.41 1.536-0.307 1.024 0.512s-0.204 1.024 0.82 0.615c2.355-0.922 2.15-1.23-3.175-3.687-2.765-1.229-5.837-3.072-6.963-4.198-1.126-1.024 2.867 0.41 8.704 3.174 26.522 12.493 53.965 18.33 85.504 18.432 8.5 0 19.763-0.614 25.088-1.433 5.325-0.82 12.698-1.844 16.384-2.356 16.794-2.355 57.754-20.377 69.837-30.924 1.229-1.127-1.741 0.41-6.861 3.481-5.018 3.072-10.342 5.94-11.776 6.247-2.253 0.614-2.15 0.512 0.512-1.024 3.072-1.639 5.325-3.072 16.384-10.138 3.38-2.15 6.656-3.891 7.373-3.891 0.717 0 1.024-0.307 0.819-0.717-0.205-0.41 3.584-3.994 8.5-7.987 4.914-3.891 10.956-9.319 13.516-11.879 4.3-4.505 7.168-5.939 7.168-3.686 0 0.922-1.536 1.434-3.38 1.126-0.511-0.102-0.614 0.308-0.204 0.922 0.307 0.614-2.048 3.482-5.325 6.554a722.843 722.843 0 0 0-9.523 8.806l-3.584 3.277 4.608-3.38c2.56-1.843 6.246-4.915 8.397-6.86 2.253-2.15 4.198-3.175 5.017-2.765 0.82 0.614 1.024 0.41 0.41-0.41-0.512-0.921 1.331-3.481 5.222-7.372 3.277-3.277 5.632-6.247 5.325-6.656-0.41-0.308-2.048 0.921-3.686 2.764-1.946 2.15-3.175 2.868-3.687 2.15-0.41-0.716 0.308-1.74 1.844-2.457 1.433-0.614 2.662-1.536 2.662-2.048s-0.614-0.614-1.229-0.205c-0.717 0.41-0.512-0.204 0.615-1.433 1.024-1.229 2.355-2.048 3.072-1.946 0.614 0.103 1.024-0.41 0.819-1.126-0.103-0.82 0.205-1.127 0.717-0.82 0.819 0.513 2.355-1.74 2.56-3.89 0.102-0.82 3.686-1.946 3.686-1.127 0 0.102-1.638 2.048-3.584 4.198-3.38 3.892-4.3 5.53-2.97 5.53 0.82 0 0.922-0.102 10.24-12.39 9.421-12.596 15.156-22.119 23.04-37.99 3.482-7.271 6.554-12.903 6.861-12.698 0.205 0.307-1.74 4.915-4.3 10.444-2.56 5.428-4.609 10.138-4.404 10.343 0.82 0.717 12.083-24.064 11.981-26.215-0.102-0.307-0.717 0.512-1.536 1.946-2.15 3.789-1.843 2.458 1.946-8.704 1.945-5.632 3.584-9.626 3.584-9.011 0.102 0.717-0.82 4.096-2.048 7.577-1.23 3.38-1.946 6.452-1.639 6.656 1.639 1.639 9.83-32.153 11.981-49.356 1.536-12.084 2.458-28.672 1.434-27.75-0.41 0.409-0.922 2.252-1.024 4.095-1.536 24.781-3.482 40.039-4.506 36.967-0.922-2.458-0.717-12.39 0.307-13.312 0.41-0.41 0.41-2.253 0.103-4.199-0.308-1.843-0.308-4.198 0-5.12 1.228-2.97 1.228-37.171 0.102-37.171-0.512 0-0.41-0.41 0.41-0.922 1.126-0.716 1.228-2.457 0.614-7.782-0.512-4.71-1.024-6.451-1.638-5.53-0.615 1.127-0.922 0.82-0.922-0.921 0-1.331 0.41-2.15 0.922-1.843 0.921 0.614-1.844-15.872-4.506-27.034-2.253-9.011-7.578-25.702-9.114-28.16-0.716-1.126-2.15-4.403-3.174-7.168-3.686-9.933-15.974-32.256-23.962-43.52-1.74-2.56-3.993-5.734-4.915-7.168-3.789-5.632-15.565-19.456-23.859-27.955-8.602-9.011-11.98-11.674-13.005-10.547-0.307 0.307 0.512 1.024 1.843 1.536s1.741 1.024 0.922 1.024c-0.82 0-2.867-1.127-4.608-2.56-2.048-1.844-2.355-2.253-0.82-1.536 1.537 0.819 2.458 0.819 2.868 0.102 0.41-0.614 0.205-0.922-0.205-0.82-0.512 0.206-2.15-1.023-3.584-2.662-1.945-2.252-2.765-2.662-3.379-1.638-0.614 0.922-0.41 1.126 0.512 0.512 0.922-0.614 1.126-0.41 0.512 0.512-0.512 0.82-0.41 1.126 0.307 0.614 0.615-0.307 1.331-0.204 1.639 0.308 1.536 2.355-2.868 0.102-7.168-3.79-3.072-2.764-4.404-4.607-3.892-5.529 0.615-1.126 0.512-1.126-0.819 0-1.331 1.024-1.843 1.024-2.457 0.103-0.512-0.82-0.308-1.024 0.716-0.512 0.82 0.41 0.308-0.205-1.024-1.434-1.433-1.229-3.072-2.867-3.686-3.789-1.024-1.331-1.434-1.331-2.048-0.307-0.512 0.717-0.41 1.126 0.102 0.82 0.512-0.308 1.844 0.614 2.97 2.15 1.946 2.662 1.946 2.662 0 1.126-2.56-1.843-8.5-8.09-8.704-9.011-0.307-1.536-0.82-1.331-0.614 0.205 0.102 0.921 1.126 2.355 2.252 3.276 1.844 1.536 1.844 1.536-0.307 0.41-1.331-0.614-2.765-1.946-3.379-3.072-0.614-1.126-1.434-1.946-1.843-1.843-0.41 0.102-2.663-1.024-5.018-2.56-2.457-1.536-4.813-2.765-5.427-2.765-0.614 0-1.024-0.717-0.82-1.638 0.308-1.536-8.089-7.27-9.113-6.144-0.307 0.204 1.741 1.638 4.506 3.072 2.662 1.433 4.3 2.56 3.584 2.662-1.843 0-9.421-4.915-9.421-6.246 0-2.56-33.587-15.975-55.091-21.914-13.927-3.891-17.408-4.608-35.021-7.27-9.523-1.332-51.2-3.072-52.326-2.048z m33.69 7.372c-0.308 0.308-11.162 0.615-23.962 0.82-12.903 0.204-20.685 0-17.306-0.41 7.578-0.82 41.984-1.229 41.267-0.41z m11.263 1.127c-1.024 0.205-2.662 0.205-3.584 0-1.024-0.307-0.205-0.512 1.741-0.512s2.765 0.205 1.843 0.512z m-62.464 1.024c-1.024 0.205-2.867 0.205-4.096 0-1.331-0.205-0.512-0.41 1.741-0.41 2.253-0.102 3.277 0.103 2.355 0.41z m71.68 0c-1.024 0.205-2.867 0.205-4.096 0-1.331-0.205-0.512-0.41 1.741-0.41 2.253-0.102 3.277 0.103 2.355 0.41z m-79.36 1.024c-0.717 0.205-1.945 0.205-2.56 0-0.717-0.307-0.205-0.512 1.229-0.512s1.946 0.205 1.331 0.512z m50.893-0.41c-1.229 1.127-19.046 2.253-26.112 1.741-3.584-0.307-3.38-0.41 2.048-0.922 8.602-0.819 24.678-1.33 24.064-0.819z m35.123 0.41c-0.717 0.205-1.945 0.205-2.56 0-0.717-0.307-0.205-0.512 1.229-0.512s1.946 0.205 1.331 0.512z m-91.648 1.024c-1.024 0.205-2.662 0.205-3.584 0-1.024-0.307-0.205-0.512 1.741-0.512s2.765 0.205 1.843 0.512z m24.986 0.512c-0.717 0.717-3.277 1.433-5.632 1.536-2.355 0.205-5.94 0.512-7.885 0.819-10.24 1.434-27.75 4.506-32.563 5.632-2.97 0.614-5.632 1.024-5.94 0.82-1.33-1.434 29.39-7.271 48.743-9.32 1.946-0.204 3.789-0.511 4.096-0.511 0.205-0.103-0.205 0.41-0.82 1.024z m49.254-0.512c-0.717 0.205-1.945 0.205-2.56 0-0.717-0.307-0.205-0.512 1.229-0.512s1.946 0.205 1.331 0.512z m27.341 0.307c2.048 0.614 2.15 0.82 0.512 0.82-1.126 0-3.174-0.41-4.608-0.82-2.048-0.614-2.15-0.82-0.512-0.82 1.126 0 3.174 0.41 4.608 0.82z m-112.128 1.536c-5.53 1.434-9.42 1.843-8.5 1.024 0.718-0.717 8.91-2.355 11.572-2.355 1.126 0-0.205 0.614-3.072 1.331z m95.642-1.126c-0.205 0.204-2.048 0.614-3.994 1.024-2.56 0.41-3.174 0.307-2.048-0.41 1.434-0.922 7.066-1.536 6.042-0.614z m8.294 1.024c0 0.204-1.126 0.614-2.56 0.819-1.331 0.307-2.253 0.102-1.946-0.307 0.512-0.922 4.506-1.332 4.506-0.512z m8.704 1.638c2.765 0.717 2.765 0.82 0.512 0.82-1.434 0-3.686-0.41-5.12-0.82-2.048-0.614-2.15-0.82-0.512-0.82 1.126 0 3.482 0.41 5.12 0.82z m-128 2.048c-3.38 1.024-7.68 2.355-9.42 2.97-1.844 0.512-3.38 0.614-3.38 0.102 0-0.717 2.355-1.434 12.288-4.198 5.734-1.536 6.246-0.615 0.512 1.126z m139.264 0.41c14.848 4.198 19.763 5.734 23.04 7.27 4.3 1.946 3.584 1.843-15.872-3.994-8.397-2.56-14.643-4.608-13.824-4.608 0.82-0.102 3.891 0.615 6.656 1.332z m-157.286 5.427c0 1.024-0.308 1.331-0.512 0.614-0.308-0.717-1.332-0.921-2.253-0.614-1.536 0.41-1.536 0.307-0.205-0.615 2.253-1.536 3.072-1.433 2.97 0.615z m14.438-0.717c-0.82 0.512-2.253 1.024-3.072 1.024-1.331 0-1.331-0.102 0-1.024 0.82-0.512 2.253-1.024 3.072-1.024 1.331 0 1.331 0.102 0 1.024z m-21.504 2.56c-1.434 0.82-3.277 1.434-4.096 1.434-0.82 0-0.102-0.717 1.536-1.434 3.994-1.843 5.837-1.843 2.56 0z m14.336-0.512c-1.843 1.229-4.403 1.331-3.686 0.205 0.204-0.41 1.536-0.82 2.867-0.922 1.843-0.205 1.945 0 0.819 0.717z m156.672 0c-0.82 0.512-1.946 1.024-2.56 1.024-0.512 0-0.307-0.512 0.512-1.024s2.048-1.024 2.56-1.024c0.614 0 0.307 0.512-0.512 1.024z m3.482 1.229c-0.512 0.819 0 0.921 1.433 0.614 1.434-0.41 2.048-0.205 1.536 0.512-0.41 0.615 0.205 0.82 1.536 0.512 1.229-0.41 2.253-0.205 2.253 0.41 0 0.614 0.922 0.819 2.048 0.512 1.331-0.307 1.843-0.103 1.331 0.614-0.41 0.615 0 0.82 1.024 0.41s1.741-0.205 1.741 0.41c0 0.614 0.717 0.921 1.536 0.511 0.82-0.307 1.536-0.102 1.536 0.512s0.614 0.922 1.229 0.717c0.717-0.307 1.945 0.205 2.765 0.922 0.716 0.819 2.048 1.229 2.764 0.921 0.82-0.307 1.434-0.204 1.434 0.308s2.15 1.638 4.915 2.662c7.168 2.662 36.045 18.432 36.045 19.66 0 0.206-0.307 0.206-0.717 0-19.353-11.16-42.496-21.81-59.085-27.033-5.632-1.843-7.577-2.867-6.656-3.481 1.946-1.23 2.253-1.127 1.332 0.307z m-168.346 0.717c0 0.512-0.922 1.126-2.048 1.433-1.126 0.307-2.048 0.103-2.048-0.307 0-0.512 0.82-1.126 1.843-1.331 0.922-0.307 1.843-0.512 2.048-0.615 0.103 0 0.205 0.308 0.205 0.82z m-13.312 1.126c-0.82 0.512-1.946 1.024-2.56 1.024-0.512 0-0.307-0.512 0.512-1.024s2.048-1.024 2.56-1.024c0.614 0 0.307 0.512-0.512 1.024z m7.68 0c0.307 0.614-0.102 0.717-0.922 0.41-0.921-0.308-1.638-0.103-1.638 0.614 0 0.614-0.512 0.82-1.126 0.41-0.82-0.41-0.717-0.922 0.204-1.536 1.844-1.127 2.663-1.127 3.482 0.102z m205.312 4.71c11.878 4.813 28.467 13.415 40.96 21.197 6.758 4.199 26.112 19.251 34.1 26.624 6.655 6.042 19.353 19.968 27.442 30.106 11.06 13.721 24.474 37.171 33.28 58.163 4.506 10.957 11.674 36.966 13.21 48.128 0.41 2.765 1.024 5.53 1.331 6.144 0.307 0.512 0.512 2.355 0.307 3.994-0.102 1.638 0.103 2.662 0.717 2.252 2.253-1.33 3.789 28.365 2.355 45.978-3.072 37.58-12.083 66.56-29.49 95.232-3.278 5.427-6.76 11.366-7.68 13.107-1.025 1.843-1.844 2.867-1.844 2.355 0-0.614-0.614-0.102-1.434 0.922-0.819 1.126-1.228 2.355-1.024 2.765 0.308 0.512-0.102 0.819-1.024 0.819-0.819 0-1.638 0.41-1.843 0.922-0.512 1.33-9.83 12.083-15.565 18.022-5.222 5.325-4.608 3.584 0.82-2.355 1.638-1.741 2.662-3.277 2.252-3.277-0.512 0-1.536 0.82-2.252 1.74-0.717 1.025-1.639 1.537-2.048 1.025-0.41-0.41 0.307-1.843 1.638-3.277 1.331-1.434 2.15-2.56 1.946-2.56-0.308 0-2.356 1.946-4.506 4.3-2.253 2.356-3.277 3.687-2.253 2.97 0.922-0.819 2.048-1.126 2.355-0.819 0.308 0.307-0.41 1.024-1.536 1.741-1.228 0.614-2.15 0.82-2.15 0.41s-2.662 1.74-5.94 4.812c-7.884 7.373-10.956 9.933-17.612 14.848-10.342 7.578-10.854 7.27-1.024-0.614 5.427-4.3 23.86-22.426 30.208-29.696 14.95-16.998 24.78-32.87 36.864-59.802 5.734-12.8 11.571-36.25 14.336-57.446 1.638-12.8 1.331-41.37-0.512-54.067-0.614-4.403-0.922-9.319-0.717-10.752 0.205-1.536 0.205-2.048-0.102-1.229-0.717 2.355-4.506-14.54-3.789-17.408 0.41-1.74 0.307-2.15-0.41-1.126s-1.126 0.614-1.638-1.741c-0.307-1.843-0.307-3.789 0.102-4.403 0.41-0.717 0.308-0.922-0.307-0.615-1.331 0.82-4.813-10.035-3.789-11.673 0.41-0.717 0.308-0.922-0.307-0.615-0.614 0.41-2.048-2.048-3.379-5.734-1.331-3.482-4.096-10.138-6.349-14.848-2.15-4.608-3.686-8.909-3.277-9.626 0.41-0.717 0.308-0.819-0.512-0.41-0.614 0.41-1.433 0-1.843-1.126-0.41-1.024-1.74-3.584-3.072-5.632-2.662-4.3-3.174-6.451-0.819-3.277 0.82 1.024 1.536 1.536 1.536 1.127 0-0.41-1.126-1.946-2.56-3.175-1.434-1.33-2.867-3.481-3.072-4.812-0.307-1.23-1.024-2.765-1.638-3.38-0.922-0.819-1.024-0.819-0.512 0.103 1.74 3.072-0.41 1.024-2.97-2.867-1.536-2.356-2.15-3.892-1.331-3.482 0.717 0.41-0.103-0.512-1.843-2.15s-3.994-4.096-5.12-5.53c-1.946-2.458-1.946-2.458 0-1.024 1.945 1.536 1.945 1.434 0.204-1.331-1.843-2.765-3.481-3.994-2.048-1.536 0.41 0.819 0.308 1.024-0.204 0.512s-1.024-1.331-1.024-1.843c-0.103-0.512-0.205-1.332-0.308-1.741-0.512-3.584-28.467-31.232-41.676-41.267-15.565-11.776-35.533-23.962-37.479-22.836-0.512 0.308-0.717 0-0.614-0.819 0.205-0.819-0.615-1.331-1.946-1.229-1.229 0-2.15-0.307-2.048-0.819 0.205-0.921-19.251-9.933-21.504-10.035-1.024 0-3.174-2.048-2.15-2.048 0.205 0 6.656 2.56 14.131 5.734z m39.526 27.136c0.308 0.615-0.512 0.308-2.048-0.614-1.433-1.024-2.662-1.946-2.662-2.253 0-0.717 3.994 1.741 4.71 2.867z m-327.065 7.27c-0.717 0.718-1.229 0.82-1.229 0.206 0-1.434 1.229-2.663 1.946-1.946 0.204 0.307-0.103 1.126-0.717 1.74z m346.931 7.68c0 0.206-1.843-1.023-4.096-2.764-2.253-1.74-4.096-3.482-4.096-3.789 0-0.205 1.843 1.024 4.096 2.765 2.253 1.74 4.096 3.482 4.096 3.789z m20.48 1.434c1.126 1.946 1.024 2.048-1.024 0.922-1.126-0.614-1.843-1.536-1.536-2.15 0.922-1.332 1.331-1.127 2.56 1.228z m-15.77 2.15l2.97 3.38-3.277-2.97c-3.174-2.867-3.891-3.686-3.072-3.686 0.205 0 1.639 1.536 3.38 3.277z m6.042 5.735c-0.307 0.307-1.126 0-1.843-0.717-0.922-1.024-0.82-1.126 0.614-0.512 1.024 0.308 1.536 0.922 1.229 1.23z m18.944 1.229c0 0.512-0.512 1.024-1.126 1.024-0.512 0-0.717-0.512-0.41-1.024 0.307-0.614 0.82-1.024 1.126-1.024 0.205 0 0.41 0.41 0.41 1.024z m-9.216 7.885l7.68 7.987-8.192-7.68c-4.506-4.198-8.294-7.782-8.602-7.987-0.204-0.103 0-0.205 0.512-0.205s4.404 3.584 8.602 7.885z m22.938 9.011l3.89 5.12-4.812-5.12c-2.56-2.867-6.144-6.963-7.885-9.216l-3.174-4.096 3.993 4.096c2.253 2.253 5.837 6.349 7.988 9.216z m-12.186 2.56c1.024 1.126 1.638 2.048 1.331 2.048-0.307 0-1.331-0.922-2.355-2.048s-1.638-2.048-1.331-2.048c0.307 0 1.331 0.922 2.355 2.048z m-61.952 4.813c0 0.205-0.82-0.103-1.74-0.615-2.868-1.74-5.428-3.89-5.428-4.608 0-0.41 1.638 0.512 3.584 2.048 1.946 1.434 3.584 2.868 3.584 3.175z m-133.837-4.096c-0.717 0.205-2.15 0.205-3.072 0-1.024-0.307-0.41-0.512 1.229-0.512 1.74 0 2.458 0.205 1.843 0.512z m37.888 2.048c-0.717 0.205-1.945 0.205-2.56 0-0.717-0.307-0.205-0.512 1.229-0.512s1.946 0.205 1.331 0.512z m6.144 1.024c-0.717 0.205-2.15 0.205-3.072 0-1.024-0.307-0.41-0.512 1.229-0.512 1.74 0 2.458 0.205 1.843 0.512z m172.442 4.71c4.3 6.349 4.915 7.783 1.945 4.301-3.072-3.584-7.168-10.138-5.836-9.216 0.614 0.307 2.355 2.56 3.89 4.915z m-154.01-0.307c16.077 5.325 33.485 14.336 47.207 24.474 7.782 5.734 22.528 19.763 27.545 26.214 4.301 5.427 0.82 2.662-7.373-6.042-20.07-20.992-44.85-35.942-76.39-46.08-5.222-1.638-6.758-2.457-4.096-2.048 2.253 0.308 8.192 1.946 13.107 3.482z m84.07 6.758c7.066 6.042 23.962 25.805 27.649 32.359 2.56 4.608 1.024 2.97-7.066-7.373-6.656-8.5-19.558-22.323-28.058-29.9-2.355-2.049-4.198-4.097-4.198-4.506 0-0.41 1.024 0.102 2.355 1.228 1.229 1.127 5.427 4.813 9.319 8.192z m211.969 4.71c1.433 3.892 2.355 6.964 2.15 6.964-0.205 0 0.205 1.843 1.024 4.096s1.126 4.096 0.717 4.096c-0.615 0-5.12-13.005-5.94-16.998-0.102-0.615-0.511-2.253-0.921-3.584-1.536-4.813 0.41-1.332 2.97 5.427z m-134.554-0.102c1.536 2.868 0.512 2.356-1.536-0.716-0.922-1.536-1.229-2.356-0.614-2.048 0.614 0.41 1.638 1.638 2.15 2.764z m5.837 9.626c2.15 4.3 0.102 1.946-2.663-3.072-1.33-2.253-1.536-3.174-0.614-2.048s2.355 3.38 3.277 5.12z m4.198 8.192c-0.307 0.307-0.921-0.205-1.229-1.229-0.614-1.433-0.512-1.536 0.512-0.614 0.717 0.717 1.024 1.536 0.717 1.843z m130.253 2.97c0 2.662-0.614 1.843-1.434-1.946-0.512-2.253-0.41-2.662 0.41-1.536 0.512 0.82 1.024 2.458 1.024 3.482z m-127.078 2.662c1.126 2.458 1.126 2.458-0.308 0.614-0.921-1.126-1.638-2.457-1.638-3.072 0-1.228 0.512-0.716 1.946 2.458z m4.096 8.704c0 0.512-0.615-0.102-1.434-1.536-0.82-1.434-1.434-3.072-1.434-3.584 0-0.614 0.615 0.102 1.434 1.536 0.82 1.434 1.434 2.97 1.434 3.584z m-240.845-1.946c-0.307 0.308-1.229 0.41-1.946 0.103-0.819-0.307-0.512-0.615 0.615-0.615 1.126-0.102 1.74 0.205 1.33 0.512z m245.453 12.084c1.536 3.89 2.56 7.168 2.355 7.475-0.307 0.205-0.922-0.922-1.536-2.458-0.512-1.536-2.048-5.427-3.277-8.499-1.229-3.072-1.74-5.222-1.229-4.608 0.512 0.512 2.15 4.198 3.687 8.09z m-182.682-3.994c1.434 0.82 2.15 1.434 1.536 1.434-0.512 0-2.15-0.615-3.584-1.434-1.434-0.82-2.048-1.434-1.536-1.434 0.614 0 2.15 0.615 3.584 1.434z m-105.472 2.56c-0.82 0.512-1.946 1.024-2.56 1.024-0.512 0-0.307-0.512 0.512-1.024s2.048-1.024 2.56-1.024c0.614 0 0.307 0.512-0.512 1.024z m16.384-0.614c0 0.307-1.74 1.024-3.789 1.74-5.427 1.741-22.016 9.728-27.238 13.005-6.554 4.199-18.432 12.8-20.173 14.541-0.82 0.922-3.174 2.97-5.12 4.608s-0.82 0.205 2.56-3.174c10.445-10.343 20.275-17.51 32.256-23.552 10.752-5.325 21.504-8.91 21.504-7.168z m209.408 2.662c0.922 1.638 1.331 3.072 1.126 3.072-0.307 0-1.228-1.434-2.15-3.072-0.922-1.74-1.331-3.072-1.126-3.072 0.307 0 1.228 1.331 2.15 3.072z m-229.888-0.614c0 0.204-0.717 0.716-1.638 1.024-0.82 0.307-1.23 0.204-0.922-0.41 0.614-1.024 2.56-1.434 2.56-0.614z m19.149 1.33c-0.922 0.206-1.434 0.922-1.127 1.537 0.41 0.614 0.205 0.819-0.41 0.41-0.614-0.308-1.433-0.205-1.74 0.409-0.41 0.614-1.638 0.82-2.765 0.41-1.229-0.308-1.843-0.205-1.536 0.307 0.717 1.126-4.096 3.686-5.427 2.867-0.512-0.307-1.024-0.205-1.229 0.205-0.102 0.512-2.867 2.15-5.939 3.789-5.632 2.97-13.824 8.294-15.974 10.342-0.615 0.512-3.482 2.97-6.35 5.427-10.649 9.011-24.78 25.498-30.412 35.533-4.915 8.806-11.264 25.395-14.234 37.069-3.89 15.462-5.017 27.033-4.505 44.851 0.307 10.752 0.102 15.258-0.512 13.21-0.512-1.639-1.024-11.776-1.127-22.426-0.102-15.565 0.308-21.197 1.844-28.16 8.704-39.834 30.412-72.09 62.361-92.57 3.277-2.048 6.349-3.686 6.861-3.686 0.614 0 1.024-0.512 1.024-1.126 0-0.512 0.512-0.717 1.024-0.41 0.614 0.307 1.024 0.102 1.024-0.512s1.229-1.638 2.867-2.253c9.011-3.686 15.258-5.837 16.589-5.734 1.024 0 0.922 0.205-0.307 0.512z m92.057 0.82c1.844 1.331 1.844 1.434-0.41 0.82-1.228-0.308-2.56-0.922-2.866-1.434-0.82-1.434 1.024-1.127 3.276 0.614z m-112.23 1.536c-0.82 0.512-1.946 1.024-2.56 1.024-0.512 0-0.307-0.512 0.512-1.024s2.048-1.024 2.56-1.024c0.614 0 0.307 0.512-0.512 1.024z m119.296 2.15c2.048 1.23 3.482 2.356 3.277 2.663-0.512 0.41-7.885-3.687-7.885-4.403 0-0.717 0.922-0.41 4.608 1.74z m-124.416 0.41c-0.717 0.82-1.843 1.536-2.458 1.536-0.614 0-0.204-0.717 0.82-1.536 2.56-1.946 3.276-1.946 1.638 0z m239.411 1.024c-0.307 0.307-0.921-0.205-1.229-1.229-0.614-1.433-0.512-1.536 0.512-0.614 0.717 0.717 1.024 1.536 0.717 1.843z m-247.091 0.307c-2.765 2.458-11.878 8.397-11.264 7.475 0.614-1.126 10.854-8.294 11.674-8.294 0.307 0 0.102 0.41-0.41 0.82z m3.584 0.717c0 0.717-7.578 5.632-8.704 5.632-0.512 0 1.024-1.434 3.584-3.072 4.813-3.174 5.12-3.38 5.12-2.56z m308.736 8.806c1.536 4.506 2.56 8.5 2.253 8.704-0.41 0.512-5.837-14.745-5.837-16.486 0-2.048 1.229 0.614 3.584 7.782z m-62.157-3.686c-0.307 0.307-0.921-0.205-1.229-1.229-0.614-1.433-0.512-1.536 0.512-0.614 0.717 0.717 1.024 1.536 0.717 1.843z m-262.963 2.867c0 0.205-1.536 1.639-3.277 3.38l-3.379 2.969 2.97-3.38c2.867-3.071 3.686-3.788 3.686-2.969z m161.792 4.301c1.331 1.434 2.15 2.56 1.843 2.56-0.205 0-1.536-1.126-2.867-2.56-1.331-1.434-2.15-2.56-1.843-2.56 0.205 0 1.536 1.126 2.867 2.56z m-171.213 4.403c-2.253 2.663-4.403 5.12-13.619 15.053-2.048 2.253-3.38 3.38-2.97 2.56 1.127-2.048 4.71-6.246 12.084-14.029 6.246-6.656 8.806-8.704 4.505-3.584z m337.818 4.506c-0.307 0.819-0.615 0.512-0.615-0.615-0.102-1.126 0.205-1.74 0.512-1.33 0.308 0.306 0.41 1.228 0.103 1.945z m-154.215 3.584c1.332 1.638 1.23 1.74-0.307 0.41-1.024-0.717-1.843-1.537-1.843-1.741 0-0.82 0.82-0.308 2.15 1.33z m155.239 0.512c-0.307 0.819-0.615 0.512-0.615-0.615-0.102-1.126 0.205-1.74 0.512-1.33 0.308 0.306 0.41 1.228 0.103 1.945z m-152.167 3.584c1.332 1.638 1.23 1.74-0.307 0.41-1.024-0.717-1.843-1.537-1.843-1.741 0-0.82 0.82-0.308 2.15 1.33z m154.215 4.608c-0.307 0.819-0.615 0.512-0.615-0.615-0.102-1.126 0.205-1.74 0.512-1.33 0.308 0.306 0.41 1.228 0.103 1.945z m-359.322 4.915c-0.717 1.024-1.433 1.74-1.74 1.536-0.41-0.41 1.843-3.584 2.56-3.584 0.204 0-0.103 0.922-0.82 2.048z m360.346 1.229c-0.307 0.819-0.615 0.512-0.615-0.615-0.102-1.126 0.205-1.74 0.512-1.33 0.308 0.306 0.41 1.228 0.103 1.945z m-55.296 11.264c-0.307 0.717-0.512 0.205-0.512-1.229s0.205-1.946 0.512-1.331c0.205 0.717 0.205 1.945 0 2.56z m1.024 5.632c-0.307 1.024-0.512 0.41-0.512-1.229 0-1.74 0.205-2.458 0.512-1.843 0.205 0.717 0.205 2.15 0 3.072z m57.344 4.608c-0.205 1.331-0.41 0.512-0.41-1.741-0.102-2.253 0.103-3.277 0.41-2.355 0.205 1.024 0.205 2.867 0 4.096z m-2.048-2.048c-0.307 0.819-0.615 0.512-0.615-0.615-0.102-1.126 0.205-1.74 0.512-1.33 0.308 0.306 0.41 1.228 0.103 1.945z m-53.76 3.891c0.205 2.253 0 4.096-0.41 4.096-0.512 0-0.819-1.843-0.819-4.096s0.205-4.096 0.41-4.096 0.614 1.843 0.819 4.096z m-0.205 43.52c-7.68 59.597-41.165 107.418-91.955 131.174-10.65 5.018-15.565 6.861-16.18 6.35-0.204-0.308 1.025-1.127 2.868-1.844 8.499-3.38 26.01-12.595 32.768-17.306 21.709-14.95 40.14-36.147 52.736-60.518 14.131-27.238 19.456-49.357 19.968-81.818l0.205-14.95 0.41 14.848c0.204 8.192-0.206 18.944-0.82 24.064z m54.989-33.075c-0.307 0.819-0.615 0.512-0.615-0.615-0.102-1.126 0.205-1.74 0.512-1.33 0.308 0.306 0.41 1.228 0.103 1.945z m0.205 56.422c0 2.15-0.103 2.15-0.922 0.205-1.229-2.867-1.229-3.789 0-3.072 0.614 0.307 1.024 1.638 0.922 2.867z m-1.536 7.27c-0.308 2.151-0.82 3.585-1.127 3.277-0.205-0.204-0.102-2.048 0.307-4.096 0.308-2.15 0.82-3.584 1.127-3.276 0.205 0.204 0.102 2.048-0.307 4.096z m-1.741 6.964c-0.307 0.819-0.615 0.512-0.615-0.615-0.102-1.126 0.205-1.74 0.512-1.33 0.308 0.306 0.41 1.228 0.103 1.945z m165.888 15.36c-0.307 0.819-0.615 0.512-0.615-0.615-0.102-1.126 0.205-1.74 0.512-1.33 0.308 0.306 0.41 1.228 0.103 1.945z m8.806 24.883c-0.307 0.922-0.819 1.434-1.024 1.126-0.307-0.307-0.205-0.921 0.205-1.536 0.922-1.638 1.536-1.33 0.82 0.41z m-217.19 34.509c-0.717 0.717-1.229 0.819-1.229 0.205 0-1.434 1.229-2.663 1.946-1.946 0.204 0.307-0.103 1.126-0.717 1.74z m-495.104 2.048c-0.307 0.819-0.615 0.512-0.615-0.615-0.102-1.126 0.205-1.74 0.512-1.33 0.308 0.306 0.41 1.228 0.103 1.945z m2.662 7.68c0.922 2.97 1.229 5.427 0.82 5.427-0.82 0-3.175-7.68-3.175-10.342 0-2.15 0.717-0.615 2.355 4.915z m660.173-2.97c0 0.512-0.717 1.741-1.536 2.867-1.434 1.844-1.434 1.741-0.41-0.921 1.23-2.765 1.946-3.482 1.946-1.946z m-261.12 11.264c0 1.843-19.046 10.138-31.027 13.415-10.138 2.867-12.083 3.174-23.245 3.686-9.728 0.41-9.728 0.41-2.355-0.512 12.697-1.638 31.334-6.758 43.93-12.186 14.028-5.939 12.697-5.427 12.697-4.403z m-112.128 1.229c0.307 0.512 0.102 1.024-0.41 1.024-0.614 0-1.126-0.512-1.126-1.024 0-0.614 0.205-1.024 0.41-1.024 0.307 0 0.819 0.41 1.126 1.024z m-5.12 5.222c6.246 2.15 10.65 3.892 9.83 3.994-2.048 0-19.25-5.94-22.425-7.782-1.536-0.82-1.843-1.23-0.717-0.82 1.126 0.41 7.168 2.458 13.312 4.608z m16.384-2.662c3.38 0.717 5.12 1.434 3.789 1.434-3.277 0.102-11.776-2.048-13.005-3.277-0.717-0.717-0.307-0.82 1.024-0.307 1.126 0.41 4.813 1.433 8.192 2.15z m168.96 2.56c-1.638 1.638-3.072 2.867-3.38 2.662-0.511-0.614 4.2-5.632 5.326-5.632 0.614-0.102-0.308 1.23-1.946 2.97z m-94.925 2.048c-0.921 0.614-6.451 2.15-12.288 3.584-12.083 2.867-29.184 4.403-41.267 3.482-7.066-0.512-6.246-0.615 6.144-0.82 7.885-0.102 16.18-0.41 18.432-0.716 6.758-0.82 24.474-4.608 26.112-5.632 0.82-0.41 2.253-0.82 3.072-0.82 1.229 0 1.229 0.103-0.205 0.922z m-75.264 2.765c-0.717 0.205-1.945 0.205-2.56 0-0.717-0.307-0.205-0.512 1.229-0.512s1.946 0.205 1.331 0.512z m6.656 1.024c-1.024 0.205-2.662 0.205-3.584 0-1.024-0.307-0.205-0.512 1.741-0.512s2.765 0.205 1.843 0.512z m7.68 1.024c-0.717 0.205-2.15 0.205-3.072 0-1.024-0.307-0.41-0.512 1.229-0.512 1.74 0 2.458 0.205 1.843 0.512z m337.408 24.78c-1.843 2.765-3.584 4.916-3.686 4.711-0.512-0.41 5.837-9.728 6.553-9.728 0.205 0-1.024 2.253-2.867 5.018z m-2.457-0.409c-0.922 1.434-1.844 2.56-2.15 2.56-0.513 0 0.511-1.843 2.047-3.891 1.741-2.253 1.843-1.331 0.103 1.331z m-31.335 28.672c-0.307 0.307-0.921-0.205-1.229-1.229-0.614-1.433-0.512-1.536 0.512-0.614 0.717 0.717 1.024 1.536 0.717 1.843z m-1.843 1.946c0 0.204-0.82 1.024-1.74 1.74-1.64 1.332-1.742 1.23-0.41-0.41 1.33-1.638 2.15-2.15 2.15-1.33z m-6.656 7.884c-8.09 8.5-13.414 13.722-15.872 15.77l-2.56 2.048 2.56-2.97c1.434-1.536 4.915-5.222 7.885-8.09 2.867-2.866 5.017-5.631 4.813-6.04-0.308-0.41 0.102-0.82 0.819-0.82 0.819 0 2.048-0.922 2.867-2.048 0.82-1.126 1.946-2.048 2.458-2.048 0.614 0-0.82 1.946-2.97 4.198z m5.632-2.764c0 0.204-0.82 1.024-1.74 1.74-1.64 1.332-1.742 1.23-0.41-0.41 1.33-1.638 2.15-2.15 2.15-1.33z m-26.214 23.04c-1.024 1.024-2.15 1.638-2.458 1.433-0.307-0.307 0.41-1.126 1.434-1.945 2.867-2.048 3.379-1.741 1.024 0.512z m-288.666 2.15c0.307 0.614-0.41 1.024-1.74 1.024-1.844 0-2.049-0.205-0.82-1.024 1.946-1.229 1.843-1.229 2.56 0z m284.058 1.74c-1.741 2.254-4.301 4.302-5.325 4.404-0.717 0 5.53-6.042 6.349-6.144 0.204 0-0.308 0.82-1.024 1.74z m-9.114 8.09c-0.82 0.82-2.355 2.048-3.482 2.56-1.33 0.615-1.024 0 0.922-1.536 3.482-2.97 4.403-3.379 2.56-1.024z m33.792-1.024c0 0.922-3.277 3.38-4.506 3.482-0.512 0-0.102-0.922 0.922-2.048 1.843-2.048 3.584-2.662 3.584-1.434z m-6.758 6.247c-4.199 3.891-5.94 4.71-3.072 1.536 1.74-1.843 3.481-3.277 4.096-3.277 0.512 0 0.102 0.82-1.024 1.74z m-35.226 2.15c-1.946 1.536-4.608 3.789-5.94 5.018-1.33 1.331-2.56 2.355-2.866 2.355-0.308 0-1.741 1.229-3.277 2.662-1.536 1.434-3.687 3.072-4.813 3.687-1.126 0.512-0.205-0.615 2.048-2.56 11.06-9.523 16.486-13.927 17.408-13.927 0.614-0.102-0.614 1.23-2.56 2.765z m-67.584 17.101c0 0.205-1.024 0.922-2.253 1.536-2.253 1.126-2.253 1.024-0.41-0.41 2.151-1.74 2.663-1.945 2.663-1.126z m-30.72 19.968c-0.82 0.512-1.946 1.024-2.56 1.024-0.512 0-0.307-0.512 0.512-1.024s2.048-1.024 2.56-1.024c0.614 0 0.307 0.512-0.512 1.024z m-7.168 2.458c0 0.204-0.717 0.716-1.638 1.024-0.82 0.307-1.23 0.204-0.922-0.41 0.614-1.024 2.56-1.434 2.56-0.614z m15.974 7.68c-0.614 0.921-4.71 2.252-4.71 1.536 0-0.308 1.024-0.922 2.355-1.434 2.97-1.126 2.97-1.126 2.355-0.102z m-92.979 16.179c-1.024 0.205-2.867 0.205-4.096 0-1.331-0.205-0.512-0.41 1.741-0.41 2.253-0.102 3.277 0.103 2.355 0.41z m118.989 2.765c0 0.204-0.717 0.716-1.638 1.024-0.82 0.307-1.23 0.204-0.922-0.41 0.614-1.024 2.56-1.434 2.56-0.614z m-10.24 8.806c-0.82 0.512-1.946 1.024-2.56 1.024-0.512 0-0.307-0.512 0.512-1.024s2.048-1.024 2.56-1.024c0.614 0 0.307 0.512-0.512 1.024z m-4.096 1.434c0 0.614-12.698 5.632-15.565 6.144-1.331 0.204-4.915 1.33-7.987 2.457-13.517 4.915-47.718 12.39-64.512 13.927l-5.632 0.512 6.656-1.434c3.686-0.82 11.776-2.458 17.92-3.584 6.246-1.229 11.98-2.355 12.8-2.662 0.82-0.205 4.3-1.024 7.68-1.946 3.38-0.82 7.066-1.74 8.192-1.946 1.126-0.204 3.277-0.921 4.915-1.536 1.536-0.614 2.765-0.921 2.765-0.614 0 0.205 2.56-0.512 5.632-1.536s5.632-1.74 5.632-1.536c0 0.205 2.662-0.512 5.94-1.638 3.174-1.127 6.962-2.356 8.294-2.56 1.433-0.308 3.276-0.922 4.096-1.434 1.74-1.024 3.174-1.331 3.174-0.614z" p-id="5297" fill="#2c2c2c"></path><path d="M688.128 345.498c0 0.204 0.82 1.024 1.843 1.74 1.536 1.332 1.639 1.23 0.307-0.41s-2.15-2.15-2.15-1.33z m46.182 111.82c0 1.127 0.308 1.434 0.615 0.615 0.307-0.717 0.205-1.639-0.103-1.946-0.307-0.41-0.614 0.205-0.512 1.331zM350.515 269.926c-2.457 1.434-4.403 2.868-4.403 3.175 0 0.41 8.704-4.301 10.138-5.427 1.638-1.434-2.253 0.102-5.735 2.252z m271.053-0.204c0 0.204 0.717 0.716 1.638 1.024 0.82 0.307 1.23 0.204 0.922-0.41-0.614-1.024-2.56-1.434-2.56-0.614z m28.262 21.299c0.41 0.512 0.922 0.717 1.23 0.41 0.306-0.308 1.535 0.204 2.662 1.126 2.15 1.843 2.15 1.843 0.307-0.307-1.639-2.048-5.325-3.072-4.199-1.23z m-166.707 35.328c3.482 0.205 9.216 0.205 12.8 0 3.482-0.205 0.615-0.307-6.451-0.307s-9.933 0.102-6.349 0.307z m-15.36 1.024c1.229 0.205 3.072 0.205 4.096 0 0.922-0.307-0.102-0.512-2.355-0.41-2.253 0-3.072 0.205-1.74 0.41z m40.448 0c0.922 0.205 2.355 0.205 3.072 0 0.615-0.307-0.102-0.512-1.843-0.512-1.638 0-2.253 0.205-1.229 0.512z m7.168 1.024c0.922 0.205 2.56 0.205 3.584 0 0.922-0.307 0.103-0.512-1.843-0.512s-2.765 0.205-1.74 0.512z m7.68 1.024c0.615 0.205 1.843 0.205 2.56 0 0.615-0.307 0.103-0.512-1.331-0.512s-1.946 0.205-1.229 0.512z m5.12 1.024c0.615 0.205 1.843 0.205 2.56 0 0.615-0.307 0.103-0.512-1.331-0.512s-1.946 0.205-1.229 0.512z m5.12 1.024c0.717 0.307 1.639 0.205 1.946-0.103 0.41-0.307-0.205-0.614-1.331-0.512-1.127 0-1.434 0.308-0.615 0.615z m4.813 1.126c3.174 1.434 8.5 2.458 6.656 1.331-0.82-0.512-3.174-1.126-5.12-1.536-2.458-0.41-2.867-0.307-1.536 0.205z m12.8 3.891c0 0.717 5.325 2.56 5.837 2.048 0.205-0.204-1.024-0.819-2.663-1.433-1.74-0.615-3.174-0.922-3.174-0.615z" p-id="5298" fill="#2c2c2c"></path><path d="M569.14 345.088c17.92 9.523 31.846 19.456 44.646 32.154 6.348 6.246 13.107 13.516 14.95 16.179 1.843 2.765 3.789 4.915 4.198 4.915 0.41 0 1.024 1.126 1.332 2.56 0.41 1.434 1.126 2.56 1.638 2.56 0.614 0 1.024 0.717 1.024 1.536s0.41 1.536 0.82 1.536c1.33 0 8.396 13.926 7.577 14.848-0.41 0.512-0.103 0.41 0.717 0 1.126-0.614 1.33-0.41 0.819 0.922-0.512 1.126-0.307 1.536 0.512 1.024s0.921-0.205 0.512 1.024c-0.41 0.921-0.307 1.536 0.102 1.228 0.922-0.512 6.656 13.517 10.138 24.986 1.843 5.94 2.253 6.656 1.74 3.072-1.33-9.626-8.806-29.798-15.564-41.984-14.643-26.42-41.882-51.2-73.728-67.072-15.053-7.475-15.975-7.168-1.434 0.512z m-175.412 2.048c-0.307 0.614 0.102 0.717 0.922 0.41 1.843-0.717 2.15-1.434 0.716-1.434-0.614 0-1.33 0.41-1.638 1.024z m-11.06 6.554c-17.817 11.161-34.815 26.214-49.868 44.236-20.685 24.679-39.014 64.41-44.442 96.564-1.126 6.246 0.41 2.662 2.458-5.735 7.066-29.798 22.938-64.307 38.298-83.353 1.228-1.434 3.584-4.404 5.222-6.656 5.632-7.27 16.691-19.354 21.606-23.45 2.56-2.253 5.53-4.813 6.452-5.734 2.764-2.765 16.69-12.698 23.45-16.794 5.631-3.482 7.167-4.608 6.04-4.608-0.204 0-4.402 2.458-9.215 5.53z m98.1 12.492c-11.878 1.434-19.968 3.175-30.72 6.759-12.083 4.096-30.925 12.697-29.9 13.721 0.306 0.308 1.535 0.103 2.662-0.614 1.228-0.614 2.15-0.82 2.15-0.614 0 0.614-5.632 3.686-6.656 3.686-0.307 0-0.307-0.512 0.102-1.229s0.308-0.819-0.512-0.41c-0.614 0.41-0.921 1.127-0.614 1.639 0.307 0.41-1.229 1.843-3.277 3.174-4.813 2.868-20.48 14.848-21.401 16.384-0.308 0.615 3.481-2.15 8.499-6.144 5.12-3.993 9.523-7.27 9.933-7.27 0.41 0 2.252-1.126 3.993-2.458 4.403-3.276 27.239-14.13 35.533-16.896 32.666-10.65 74.854-6.963 107.008 9.319 33.485 16.998 63.488 57.446 69.632 93.798 0.82 4.71 1.331 6.451 1.434 4.301 0.307-20.378-17.101-57.14-35.84-75.469-19.866-19.456-40.448-31.334-65.332-37.683-13.721-3.482-34.918-5.325-46.694-3.994z" p-id="5299" fill="#2c2c2c"></path><path d="M657.818 434.79c0.204 1.639 0.921 5.018 1.638 7.578 0.717 2.56 1.434 5.53 1.638 6.656 0.103 1.126 0.308 2.048 0.41 2.048 0.102 0 0.307 1.638 0.512 3.584 0.307 1.946 0.614 4.506 0.922 5.632 4.505 21.504 2.97 49.869-3.892 73.728-4.198 14.336-10.342 28.16-17.1 38.195-1.639 2.458-2.765 4.813-2.458 5.325 0.307 0.512 0 1.229-0.614 1.638-0.82 0.41-0.922 0.308-0.512-0.41 1.536-2.56-0.308-1.023-2.048 1.537-1.741 2.765-1.741 2.867 0.204 1.433 1.024-0.819 0.103 0.205-2.15 2.253-2.253 1.946-4.198 4.096-4.198 4.71-0.103 0.615-0.205 1.639-0.308 2.253 0 0.512-0.512 0.82-1.024 0.512-0.819-0.512-4.812 3.072-5.427 5.018-0.205 0.512-0.717 0.922-1.331 0.717-0.512-0.205-0.717 0-0.205 0.41 0.41 0.409-0.102 1.74-1.024 2.867-1.024 1.126 1.127-0.41 4.71-3.482 7.169-6.042 11.981-11.776 18.74-22.118 2.355-3.584 4.813-6.554 5.53-6.554 1.638 0 9.83-16.998 13.004-27.136 4.608-14.234 5.837-20.787 7.475-41.472 1.23-15.77-2.355-39.322-8.704-57.856-3.481-9.933-4.403-11.674-3.788-7.066z m4.403 104.039c-0.307 0.819-0.615 0.512-0.615-0.615-0.102-1.126 0.205-1.74 0.512-1.33 0.308 0.306 0.41 1.228 0.103 1.945z m-2.765 7.68c-1.126 1.74-1.126 1.74-0.614 0 0.307-1.024 0.614-2.458 0.716-3.072 0-0.922 0.205-0.922 0.512 0 0.308 0.717 0 2.048-0.614 3.072z m-2.458 6.144c-0.819 1.536-1.536 2.56-1.638 2.15 0-1.229 2.355-5.939 2.765-5.53 0.307 0.205-0.205 1.741-1.127 3.38z m-2.662 6.246c0 0.512-0.717 1.741-1.536 2.867-1.434 1.844-1.434 1.741-0.41-0.921 1.23-2.765 1.946-3.482 1.946-1.946z m-19.456 26.112c0 0.205-1.024 1.229-2.253 2.355l-2.355 1.946 1.946-2.355c1.843-2.15 2.662-2.765 2.662-1.946z m-6.144 7.168c0 0.205-1.024 1.229-2.253 2.355l-2.355 1.946 1.946-2.355c1.843-2.15 2.662-2.765 2.662-1.946z m312.013-142.643c-0.307 1.946-1.127 7.987-1.639 13.312-0.614 5.325-2.457 19.149-4.198 30.618-1.74 11.468-2.867 21.094-2.56 21.401 0.307 0.307 0.512-0.205 0.512-1.126 0-1.024 0.614-1.741 1.434-1.741 1.433 0 1.74-1.229 4.198-16.794 1.74-11.264 3.891-39.628 3.38-45.158l-0.41-4.096-0.717 3.584z m-327.885 5.12c4.506 19.456 4.915 22.733 5.018 35.328 0 24.371-6.964 46.592-20.07 64-2.766 3.584-4.506 6.758-3.994 6.963 0.614 0.205 0.819 0.922 0.41 1.536-1.025 1.843 2.662-1.331 7.065-5.837 4.403-4.505 13.005-21.504 15.565-30.617 6.758-23.655 5.734-51.815-2.458-69.427-1.126-2.458-1.843-3.38-1.536-1.946z" p-id="5300" fill="#2c2c2c"></path><path d="M660.582 460.39c0 1.127 0.308 1.434 0.615 0.615 0.307-0.717 0.205-1.639-0.103-1.946-0.307-0.41-0.614 0.205-0.512 1.331z m-51.2 5.12c0 1.127 0.308 1.434 0.615 0.615 0.307-0.717 0.205-1.639-0.103-1.946-0.307-0.41-0.614 0.205-0.512 1.331z m52.224 1.024c0 1.127 0.308 1.434 0.615 0.615 0.307-0.717 0.205-1.639-0.103-1.946-0.307-0.41-0.614 0.205-0.512 1.331z m88.167 4.506c0 1.434 0.205 1.946 0.512 1.229 0.205-0.615 0.205-1.843 0-2.56" p-id="5301" fill="#2c2c2c"></path></svg>