<?xml version="1.0" standalone="no"?><!DOCTYPE svg PUBLIC "-//W3C//DTD SVG 1.1//EN" "http://www.w3.org/Graphics/SVG/1.1/DTD/svg11.dtd"><svg t="1736869591032" class="icon" viewBox="0 0 5671 1024" version="1.1" xmlns="http://www.w3.org/2000/svg" p-id="14764" xmlns:xlink="http://www.w3.org/1999/xlink" width="1107.6171875" height="200"><path d="M356.952894 250.831763c63.397039 0 122.659489 23.429341 166.761776 60.640646l62.018843-73.044414c-62.018843-52.371467-141.95424-84.069987-228.780619-84.069987C159.870794 155.736205 0 315.606999 0 511.310902 0 708.393001 159.870794 868.263795 356.952894 868.263795c86.82638 0 166.761777-31.69852 228.780619-84.069986L523.71467 711.149394c-45.480485 38.589502-103.364738 60.640646-166.761776 60.640646C212.242261 771.79004 96.473755 654.643338 96.473755 511.310902c0-143.332436 115.768506-260.479139 260.479139-260.479139zM2329.152086 176.409152h-191.569313c-26.185734 0-48.236878 22.051144-48.236878 48.236878V799.35397c0 26.185734 22.051144 48.236878 48.236878 48.236878H2329.152086c184.678331 0 336.279946-150.223419 336.279946-336.279946 0-184.678331-151.601615-334.90175-336.279946-334.90175z m0 574.707941h-143.332436V271.504711H2329.152086c132.306864 0 239.806191 107.499327 239.806191 239.806191 0 132.306864-107.499327 239.806191-239.806191 239.806191zM2924.532974 223.267833V799.35397c0 26.185734 22.051144 48.236878 48.236878 48.236878h399.676985v-96.473755h-351.440108V559.547779h223.267834v-96.473755h-223.267834V271.504711h351.440108v-96.473755h-399.676985c-26.185734 1.378197-48.236878 22.051144-48.236878 48.236877zM4377.152086 223.267833V799.35397c0 26.185734 22.051144 48.236878 48.236878 48.236878h399.676985v-96.473755h-351.440108V559.547779h223.267833v-96.473755h-223.267833V271.504711h351.440108v-96.473755h-399.676985c-27.56393 1.378197-48.236878 22.051144-48.236878 48.236877zM3919.590848 176.409152h-208.107672c-26.185734 0-48.236878 22.051144-48.236877 48.236878v622.944818h96.473755V559.547779h159.870794c106.121131 0 191.569314-85.448183 191.569314-191.569313 1.378197-106.121131-85.448183-191.569314-191.569314-191.569314z m0 286.664872h-159.870794V271.504711h159.870794c52.371467 0 96.473755 42.724092 96.473755 96.473755s-42.724092 95.095559-96.473755 95.095558zM5574.804845 176.409152v490.637954L5179.26245 192.94751c-12.403769-15.160162-34.454913-20.672948-53.749664-13.781965s-31.69852 24.807537-31.69852 45.480485v622.944818h96.473756V356.952894l395.542395 474.099596c9.647376 11.025572 23.429341 17.916555 37.211306 17.916554 5.512786 0 11.025572-1.378197 16.538358-2.756393 19.294751-6.890983 31.69852-24.807537 31.698519-45.480484V176.409152h-96.473755zM1816.462988 348.683715c0-1.378197 0-2.756393-1.378197-4.13459v-2.756393c0-1.378197-1.378197-2.756393-1.378196-2.756393 0-1.378197 0-1.378197-1.378197-2.756393 0-1.378197-1.378197-1.378197-1.378196-2.756393s-1.378197-1.378197-1.378197-1.378196c0-1.378197-1.378197-1.378197-1.378196-2.756393l-1.378197-1.378197c0-1.378197-1.378197-1.378197-2.756393-2.756393l-1.378196-1.378196-2.756393-2.756393-1.378197-1.378197h-1.378196L1329.959623 6.890983C1314.799462-2.756393 1295.504711-2.756393 1281.722746 6.890983L813.135935 319.741588h-1.378196l-1.378197 1.378197c-1.378197 0-1.378197 1.378197-2.756393 2.756393l-1.378196 1.378196-2.756393 2.756393-1.378197 1.378197c0 1.378197-1.378197 1.378197-1.378196 2.756393l-1.378197 1.378196c0 1.378197-1.378197 1.378197-1.378196 2.756393s0 1.378197-1.378197 2.756393c0 1.378197-1.378197 2.756393-1.378196 2.756393v2.756393c0 1.378197 0 2.756393-1.378197 4.13459v325.254374c0 1.378197 0 2.756393 1.378197 4.134589v2.756393c0 1.378197 1.378197 2.756393 1.378196 2.756393 0 1.378197 0 1.378197 1.378197 2.756393 0 1.378197 1.378197 1.378197 1.378196 2.756393l1.378197 1.378197c0 1.378197 1.378197 1.378197 1.378196 2.756393l1.378197 1.378196 2.756393 2.756393 1.378196 1.378197 2.756393 2.756393 1.378197 1.378196h1.378196l468.586811 312.850606c6.890983 5.512786 16.538358 6.890983 24.807537 6.890982 8.269179 0 16.538358-2.756393 24.807537-6.890982l467.208613-311.472409h1.378197l1.378196-1.378197c1.378197 0 1.378197-1.378197 2.756393-2.756393l1.378197-1.378196 2.756393-2.756393 1.378196-1.378197c0-1.378197 1.378197-1.378197 1.378197-2.756393l1.378196-1.378196c0-1.378197 1.378197-1.378197 1.378197-2.756393s0-1.378197 1.378196-2.756393c0-1.378197 1.378197-2.756393 1.378197-2.756393v-2.756393c0-1.378197 0-2.756393 1.378196-4.13459v-1.378196V355.574697v-5.512786c-1.378197 0-1.378197-1.378197-1.378196-1.378196zM1305.152086 616.053836l-155.736204-103.364738 155.736204-103.364737 155.736205 103.364737-155.736205 103.364738zM1262.427995 330.76716l-190.191117 128.172275-154.358009-103.364738 344.549126-230.158815V330.76716zM992.30148 511.310902l-110.25572 73.044414V438.266487l110.25572 73.044415z m78.557201 53.749663l190.191117 128.172275v205.351278l-344.549125-230.158815L1070.858681 565.060565z m278.395693 126.794078l190.191117-128.172274 154.358008 103.364737-344.549125 230.158816V691.854643z m270.126514-180.543741l110.25572-73.044415v147.467026l-110.25572-74.422611z m-78.5572-52.371467L1349.254374 330.76716V126.794078l344.549125 230.158816-152.979811 101.986541z" fill="#2c2c2c" p-id="14765"></path></svg>