<?xml version="1.0" standalone="no"?><!DOCTYPE svg PUBLIC "-//W3C//DTD SVG 1.1//EN" "http://www.w3.org/Graphics/SVG/1.1/DTD/svg11.dtd"><svg t="1736869341938" class="icon" viewBox="0 0 1024 1024" version="1.1" xmlns="http://www.w3.org/2000/svg" p-id="8086" xmlns:xlink="http://www.w3.org/1999/xlink" width="200" height="200"><path d="M803.2 582.4c121.6 0 220.8 99.2 220.8 220.8S924.8 1024 803.2 1024c-121.6 0-220.8-99.2-220.8-220.8s99.2-220.8 220.8-220.8z m0 51.2c-60.8 0-115.2 32-147.2 83.2-28.8 51.2-28.8 115.2 0 166.4s86.4 83.2 147.2 83.2c92.8 0 169.6-73.6 169.6-166.4 0-89.6-76.8-166.4-169.6-166.4z m-9.6 57.6c12.8 0 22.4 9.6 25.6 19.2V787.2h70.4c12.8 0 22.4 9.6 25.6 19.2v6.4c0 12.8-9.6 22.4-19.2 25.6h-102.4c-12.8 0-22.4-9.6-25.6-19.2v-102.4c0-12.8 9.6-22.4 25.6-25.6zM553.6 3.2h9.6c16 3.2 51.2 6.4 48 38.4-3.2 28.8-41.6 25.6-54.4 25.6-64 0-131.2-32-169.6 92.8l-3.2 16-19.2 86.4h89.6c16 0 28.8 12.8 28.8 25.6 0 16-9.6 28.8-25.6 32H352L272 716.8s-6.4 64-48 60.8c-41.6-3.2-25.6-57.6-25.6-67.2L281.6 320H160c-16 0-28.8-12.8-28.8-28.8 0-25.6 12.8-32 25.6-32h137.6l19.2-89.6c12.8-64 41.6-115.2 89.6-147.2 41.6-25.6 112-22.4 150.4-19.2zM704 409.6c6.4 6.4 9.6 12.8 12.8 22.4 0 9.6-3.2 16-6.4 22.4l-108.8 128 22.4 25.6c-16 16-28.8 32-41.6 51.2l-22.4-28.8-99.2 118.4c-12.8 12.8-32 16-44.8 3.2-12.8-12.8-16-32-3.2-44.8l108.8-128-108.8-128c-12.8-12.8-9.6-35.2 3.2-44.8s35.2-9.6 44.8 3.2l99.2 118.4 99.2-118.4c6.4-6.4 12.8-9.6 22.4-12.8 9.6 6.4 16 6.4 22.4 12.8zM195.2 518.4v64H0v-64h195.2z m0-128v64H0v-64h195.2z m672-259.2c6.4 0 9.6 3.2 12.8 6.4 3.2 3.2 6.4 9.6 6.4 12.8l-3.2 44.8 41.6-16c6.4-3.2 12.8-3.2 19.2-3.2 6.4 0 12.8 3.2 16 9.6 3.2 6.4 3.2 12.8 0 19.2-3.2 6.4-6.4 9.6-9.6 12.8l-51.2 12.8 35.2 44.8c0 3.2 3.2 6.4 3.2 9.6 0 3.2 0 6.4-3.2 9.6 0 3.2-3.2 6.4-3.2 9.6-3.2 3.2-3.2 6.4-6.4 6.4-6.4 0-12.8 0-19.2-3.2-3.2-3.2-9.6-6.4-9.6-12.8l-25.6-44.8L832 297.6c0 3.2-3.2 3.2-6.4 6.4-3.2 0-3.2 0-6.4 3.2h-9.6c-3.2 0-6.4-3.2-6.4-6.4-6.4-9.6-6.4-22.4 0-28.8l28.8-41.6h-3.2c-6.4 0-12.8-3.2-16-3.2-6.4-3.2-12.8-3.2-22.4-6.4-3.2-3.2-6.4-6.4-9.6-12.8-3.2-6.4 0-12.8 0-19.2 3.2-3.2 6.4-6.4 12.8-6.4s9.6 0 16 3.2l19.2 6.4c6.4 3.2 12.8 6.4 19.2 6.4v-12.8-3.2-32c0-6.4 3.2-9.6 6.4-12.8 3.2-6.4 6.4-6.4 12.8-6.4z m0 0" p-id="8087" fill="#2c2c2c"></path></svg>