<?xml version="1.0" standalone="no"?><!DOCTYPE svg PUBLIC "-//W3C//DTD SVG 1.1//EN" "http://www.w3.org/Graphics/SVG/1.1/DTD/svg11.dtd"><svg t="1736869478779" class="icon" viewBox="0 0 1024 1024" version="1.1" xmlns="http://www.w3.org/2000/svg" p-id="12875" xmlns:xlink="http://www.w3.org/1999/xlink" width="200" height="200"><path d="M138.078815 294.949926m-80.175408 0a80.175407 80.175407 0 1 0 160.350815 0 80.175407 80.175407 0 1 0-160.350815 0Z" fill="#2c2c2c" p-id="12876"></path><path d="M328.485926 155.211852m-56.888889 0a56.888889 56.888889 0 1 0 113.777778 0 56.888889 56.888889 0 1 0-113.777778 0Z" fill="#2c2c2c" p-id="12877"></path><path d="M523.956148 259.77363m-56.888889 0a56.888889 56.888889 0 1 0 113.777778 0 56.888889 56.888889 0 1 0-113.777778 0Z" fill="#2c2c2c" p-id="12878"></path><path d="M751.435852 828.529778m-56.888889 0a56.888889 56.888889 0 1 0 113.777778 0 56.888889 56.888889 0 1 0-113.777778 0Z" fill="#2c2c2c" p-id="12879"></path><path d="M744.950519 609.621333m-56.888889 0a56.888889 56.888889 0 1 0 113.777777 0 56.888889 56.888889 0 1 0-113.777777 0Z" fill="#2c2c2c" p-id="12880"></path><path d="M748.515556 388.816593m-56.888889 0a56.888889 56.888889 0 1 0 113.777777 0 56.888889 56.888889 0 1 0-113.777777 0Z" fill="#2c2c2c" p-id="12881"></path><path d="M512.559407 26.036148m-25.979259 0a25.979259 25.979259 0 1 0 51.958519 0 25.979259 25.979259 0 1 0-51.958519 0Z" fill="#2c2c2c" p-id="12882"></path><path d="M941.255111 728.803556m-25.979259 0a25.979259 25.979259 0 1 0 51.958518 0 25.979259 25.979259 0 1 0-51.958518 0Z" fill="#2c2c2c" p-id="12883"></path><path d="M941.255111 509.515852m-25.979259 0a25.979259 25.979259 0 1 0 51.958518 0 25.979259 25.979259 0 1 0-51.958518 0Z" fill="#2c2c2c" p-id="12884"></path><path d="M941.255111 268.98963m-25.979259 0a25.979259 25.979259 0 1 0 51.958518 0 25.979259 25.979259 0 1 0-51.958518 0Z" fill="#2c2c2c" p-id="12885"></path><path d="M732.188444 144.175407m-25.979259 0a25.979259 25.979259 0 1 0 51.958519 0 25.979259 25.979259 0 1 0-51.958519 0Z" fill="#2c2c2c" p-id="12886"></path><path d="M139.538963 724.973037m-80.175407 0a80.175407 80.175407 0 1 0 160.350814 0 80.175407 80.175407 0 1 0-160.350814 0Z" fill="#2c2c2c" p-id="12887"></path><path d="M138.078815 509.515852m-80.175408 0a80.175407 80.175407 0 1 0 160.350815 0 80.175407 80.175407 0 1 0-160.350815 0Z" fill="#2c2c2c" p-id="12888"></path><path d="M319.004444 828.529778m-80.175407 0a80.175407 80.175407 0 1 0 160.350815 0 80.175407 80.175407 0 1 0-160.350815 0Z" fill="#2c2c2c" p-id="12889"></path><path d="M512.559407 941.093926m-80.175407 0a80.175407 80.175407 0 1 0 160.350815 0 80.175407 80.175407 0 1 0-160.350815 0Z" fill="#2c2c2c" p-id="12890"></path><path d="M319.004444 607.93363m-80.175407 0a80.175407 80.175407 0 1 0 160.350815 0 80.175407 80.175407 0 1 0-160.350815 0Z" fill="#2c2c2c" p-id="12891"></path><path d="M319.004444 394.638222m-80.175407 0a80.175407 80.175407 0 1 0 160.350815 0 80.175407 80.175407 0 1 0-160.350815 0Z" fill="#2c2c2c" p-id="12892"></path><path d="M512.559407 724.973037m-80.175407 0a80.175407 80.175407 0 1 0 160.350815 0 80.175407 80.175407 0 1 0-160.350815 0Z" fill="#2c2c2c" p-id="12893"></path><path d="M512.559407 509.515852m-80.175407 0a80.175407 80.175407 0 1 0 160.350815 0 80.175407 80.175407 0 1 0-160.350815 0Z" fill="#2c2c2c" p-id="12894"></path></svg>